<svg width="71" height="40" viewBox="0 0 71 40" fill="none" xmlns="http://www.w3.org/2000/svg">
<g filter="url(#filter0_f_1_125)">
<path d="M-34.5876 -3.17168L-29.6514 5.73353L-31.2776 6.63498L-38.2588 3.17764L-38.324 3.21379L-35.2172 8.81869L-37.0999 9.86234L-42.0362 0.957117L-40.3839 0.0412127L-33.4356 3.51108L-33.3573 3.46769L-36.4617 -2.13286L-34.5876 -3.17168ZM-28.0958 4.87126L-33.032 -4.03396L-27.0315 -7.36014L-26.171 -5.80781L-30.2888 -3.52528L-29.1126 -1.40334L-25.3035 -3.51474L-24.443 -1.96241L-28.2521 0.148989L-27.0735 2.27528L-22.9383 -0.0168876L-22.0778 1.53544L-28.0958 4.87126ZM-18.5938 -0.395795L-26.0781 -7.88859L-24.0214 -9.02865L-19.1175 -3.65817L-19.0436 -3.69915L-20.8472 -10.7882L-19.0861 -11.7643L-14.0272 -6.46274L-13.9489 -6.50613L-15.9119 -13.5238L-13.8552 -14.6639L-11.467 -4.34624L-13.302 -3.3291L-18.2251 -8.2114L-18.2947 -8.17284L-16.7588 -1.41293L-18.5938 -0.395795ZM-2.56494 -20.9222L2.3713 -12.0169L0.745054 -11.1155L-6.23608 -14.5728L-6.30131 -14.5367L-3.19446 -8.93178L-5.07725 -7.88813L-10.0135 -16.7934L-8.36116 -17.7093L-1.41287 -14.2394L-1.3346 -14.2828L-4.43904 -19.8833L-2.56494 -20.9222ZM3.92689 -12.8792L-1.00936 -21.7844L4.99123 -25.1106L5.8517 -23.5583L1.7339 -21.2758L2.91012 -19.1538L6.71919 -21.2652L7.57966 -19.7129L3.77059 -17.6015L4.94921 -15.4752L9.0844 -17.7674L9.94487 -16.215L3.92689 -12.8792ZM13.4289 -18.1463L5.94458 -25.6391L8.00131 -26.7791L12.9052 -21.4086L12.9791 -21.4496L11.1755 -28.5386L12.9366 -29.5148L17.9955 -24.2132L18.0738 -24.2566L16.1108 -31.2743L18.1675 -32.4143L20.5557 -22.0967L18.7207 -21.0796L13.7975 -25.9619L13.728 -25.9233L15.2639 -19.1634L13.4289 -18.1463ZM29.4578 -38.6726L34.394 -29.7674L32.7677 -28.866L25.7866 -32.3233L25.7214 -32.2871L28.8282 -26.6823L26.9454 -25.6386L22.0092 -34.5438L23.6615 -35.4597L30.6098 -31.9899L30.6881 -32.0332L27.5837 -37.6338L29.4578 -38.6726ZM35.9496 -30.6297L31.0133 -39.5349L37.0139 -42.8611L37.8744 -41.3088L33.7566 -39.0262L34.9328 -36.9043L38.7419 -39.0157L39.6023 -37.4634L35.7933 -35.3519L36.9719 -33.2257L41.1071 -35.5178L41.9676 -33.9655L35.9496 -30.6297ZM45.4516 -35.8967L37.9673 -43.3895L40.024 -44.5296L44.9279 -39.1591L45.0018 -39.2001L43.1982 -46.2891L44.9593 -47.2653L50.0182 -41.9637L50.0965 -42.0071L48.1335 -49.0248L50.1902 -50.1648L52.5784 -39.8472L50.7434 -38.83L45.8202 -43.7123L45.7507 -43.6738L47.2866 -36.9139L45.4516 -35.8967ZM61.4804 -56.4231L66.4167 -47.5179L64.7904 -46.6164L57.8093 -50.0738L57.7441 -50.0376L60.8509 -44.4327L58.9681 -43.3891L54.0319 -52.2943L55.6842 -53.2102L62.6325 -49.7403L62.7108 -49.7837L59.6063 -55.3843L61.4804 -56.4231ZM67.9723 -48.3801L63.036 -57.2854L69.0366 -60.6115L69.8971 -59.0592L65.7793 -56.7767L66.9555 -54.6547L70.7646 -56.7661L71.625 -55.2138L67.816 -53.1024L68.9946 -50.9761L73.1298 -53.2683L73.9903 -51.716L67.9723 -48.3801ZM77.4743 -53.6472L69.99 -61.14L72.0467 -62.2801L76.9506 -56.9096L77.0245 -56.9506L75.2209 -64.0396L76.982 -65.0157L82.0409 -59.7141L82.1192 -59.7575L80.1562 -66.7752L82.2129 -67.9153L84.6011 -57.5976L82.7661 -56.5805L77.8429 -61.4628L77.7734 -61.4242L79.3093 -54.6643L77.4743 -53.6472ZM-27.8003 9.07299L-22.8641 17.9782L-24.4903 18.8797L-31.4714 15.4223L-31.5367 15.4585L-28.4298 21.0634L-30.3126 22.107L-35.2489 13.2018L-33.5965 12.2859L-26.6482 15.7558L-26.57 15.7124L-29.6744 10.1118L-27.8003 9.07299ZM-21.3085 17.1159L-26.2447 8.21071L-20.2441 4.88454L-19.3837 6.43686L-23.5015 8.71939L-22.3252 10.8413L-18.5162 8.72994L-17.6557 10.2823L-21.4648 12.3937L-20.2861 14.52L-16.151 12.2278L-15.2905 13.7801L-21.3085 17.1159ZM-11.8065 11.8489L-19.2908 4.35608L-17.2341 3.21602L-12.3302 8.5865L-12.2563 8.54553L-14.0598 1.45652L-12.2988 0.480361L-7.23984 5.78193L-7.16157 5.73855L-9.12456 -1.27914L-7.06784 -2.4192L-4.67967 7.89844L-6.51464 8.91558L-11.4378 4.03327L-11.5074 4.07184L-9.97149 10.8317L-11.8065 11.8489ZM4.22239 -8.67748L9.15864 0.227739L7.53239 1.12918L0.551253 -2.32816L0.486029 -2.292L3.59287 3.31289L1.71008 4.35654L-3.22616 -4.54868L-1.57383 -5.46458L5.37446 -1.99472L5.45273 -2.0381L2.3483 -7.63865L4.22239 -8.67748ZM10.7142 -0.634536L5.77798 -9.53975L11.7786 -12.8659L12.639 -11.3136L8.52124 -9.03108L9.69745 -6.90913L13.5065 -9.02053L14.367 -7.46821L10.5579 -5.35681L11.7365 -3.23051L15.8717 -5.52268L16.7322 -3.97036L10.7142 -0.634536ZM20.2162 -5.90159L12.7319 -13.3944L14.7886 -14.5344L19.6925 -9.16397L19.7664 -9.20494L17.9629 -16.2939L19.7239 -17.2701L24.7829 -11.9685L24.8611 -12.0119L22.8981 -19.0296L24.9549 -20.1697L27.343 -9.85203L25.5081 -8.83489L20.5849 -13.7172L20.5153 -13.6786L22.0512 -6.91873L20.2162 -5.90159ZM36.2451 -26.4279L41.1813 -17.5227L39.5551 -16.6213L32.5739 -20.0786L32.5087 -20.0425L35.6156 -14.4376L33.7328 -13.3939L28.7965 -22.2991L30.4489 -23.2151L37.3972 -19.7452L37.4754 -19.7886L34.371 -25.3891L36.2451 -26.4279ZM42.7369 -18.385L37.8007 -27.2902L43.8013 -30.6164L44.6617 -29.0641L40.5439 -26.7815L41.7201 -24.6596L45.5292 -26.771L46.3897 -25.2187L42.5806 -23.1073L43.7592 -20.981L47.8944 -23.2732L48.7549 -21.7208L42.7369 -18.385ZM52.2389 -23.6521L44.7546 -31.1449L46.8113 -32.2849L51.7152 -26.9144L51.7891 -26.9554L49.9856 -34.0444L51.7466 -35.0206L56.8055 -29.719L56.8838 -29.7624L54.9208 -36.7801L56.9775 -37.9201L59.3657 -27.6025L57.5308 -26.5854L52.6076 -31.4677L52.538 -31.4291L54.0739 -24.6692L52.2389 -23.6521ZM68.2678 -44.1784L73.204 -35.2732L71.5778 -34.3718L64.5966 -37.8291L64.5314 -37.7929L67.6383 -32.188L65.7555 -31.1444L60.8192 -40.0496L62.4716 -40.9655L69.4198 -37.4957L69.4981 -37.539L66.3937 -43.1396L68.2678 -44.1784ZM74.7596 -36.1355L69.8234 -45.0407L75.824 -48.3669L76.6844 -46.8145L72.5666 -44.532L73.7428 -42.4101L77.5519 -44.5215L78.4124 -42.9691L74.6033 -40.8577L75.7819 -38.7314L79.9171 -41.0236L80.7776 -39.4713L74.7596 -36.1355ZM84.2616 -41.4025L76.7773 -48.8953L78.834 -50.0354L83.7379 -44.6649L83.8118 -44.7059L82.0083 -51.7949L83.7693 -52.771L88.8282 -47.4695L88.9065 -47.5129L86.9435 -54.5305L89.0002 -55.6706L91.3884 -45.353L89.5534 -44.3358L84.6303 -49.2181L84.5607 -49.1796L86.0966 -42.4197L84.2616 -41.4025ZM-21.013 21.3177L-16.0767 30.2229L-17.703 31.1243L-24.6841 27.667L-24.7493 27.7031L-21.6425 33.308L-23.5253 34.3517L-28.4615 25.4465L-26.8092 24.5306L-19.8609 28.0004L-19.7826 27.957L-22.8871 22.3565L-21.013 21.3177ZM-14.5211 29.3606L-19.4574 20.4554L-13.4568 17.1292L-12.5963 18.6815L-16.7141 20.9641L-15.5379 23.086L-11.7288 20.9746L-10.8684 22.5269L-14.6774 24.6383L-13.4988 26.7646L-9.36363 24.4725L-8.50316 26.0248L-14.5211 29.3606ZM-5.01912 24.0936L-12.5034 16.6008L-10.4467 15.4607L-5.54284 20.8312L-5.46892 20.7902L-7.2725 13.7012L-5.51145 12.725L-0.452503 18.0266L-0.374235 17.9832L-2.33723 10.9655L-0.280507 9.82547L2.10766 20.1431L0.272699 21.1602L-4.65048 16.2779L-4.72005 16.3165L-3.18416 23.0764L-5.01912 24.0936ZM11.0097 3.5672L15.946 12.4724L14.3197 13.3739L7.33859 9.91652L7.27336 9.95267L10.3802 15.5576L8.49741 16.6012L3.56117 7.696L5.21351 6.78009L12.1618 10.25L12.2401 10.2066L9.13563 4.60602L11.0097 3.5672ZM17.5016 11.6101L12.5653 2.70492L18.5659 -0.621259L19.4264 0.931066L15.3086 3.2136L16.4848 5.33554L20.2939 3.22414L21.1543 4.77647L17.3453 6.88787L18.5239 9.01416L22.6591 6.72199L23.5195 8.27432L17.5016 11.6101ZM27.0036 6.34308L19.5193 -1.14971L21.576 -2.28977L26.4799 3.08071L26.5538 3.03973L24.7502 -4.04927L26.5112 -5.02543L31.5702 0.276139L31.6485 0.232754L29.6855 -6.78494L31.7422 -7.925L34.1304 2.39264L32.2954 3.40978L27.3722 -1.47252L27.3026 -1.43396L28.8385 5.32595L27.0036 6.34308ZM43.0324 -14.1833L47.9687 -5.27806L46.3424 -4.37661L39.3613 -7.83395L39.2961 -7.7978L42.4029 -2.1929L40.5201 -1.14925L35.5839 -10.0545L37.2362 -10.9704L44.1845 -7.50051L44.2628 -7.5439L41.1583 -13.1444L43.0324 -14.1833ZM49.5242 -6.14033L44.588 -15.0455L50.5886 -18.3717L51.4491 -16.8194L47.3313 -14.5369L48.5075 -12.4149L52.3165 -14.5263L53.177 -12.974L49.3679 -10.8626L50.5466 -8.73631L54.6818 -11.0285L55.5422 -9.47615L49.5242 -6.14033ZM59.0263 -11.4074L51.5419 -18.9002L53.5987 -20.0402L58.5025 -14.6698L58.5765 -14.7107L56.7729 -21.7997L58.5339 -22.7759L63.5929 -17.4743L63.6712 -17.5177L61.7082 -24.5354L63.7649 -25.6755L66.153 -15.3578L64.3181 -14.3407L59.3949 -19.223L59.3253 -19.1844L60.8612 -12.4245L59.0263 -11.4074ZM75.0551 -31.9337L79.9914 -23.0285L78.3651 -22.1271L71.384 -25.5844L71.3188 -25.5483L74.4256 -19.9434L72.5428 -18.8997L67.6066 -27.8049L69.2589 -28.7208L76.2072 -25.251L76.2855 -25.2944L73.181 -30.8949L75.0551 -31.9337ZM81.5469 -23.8908L76.6107 -32.796L82.6113 -36.1222L83.4718 -34.5699L79.354 -32.2873L80.5302 -30.1654L84.3392 -32.2768L85.1997 -30.7245L81.3906 -28.6131L82.5693 -26.4868L86.7045 -28.7789L87.5649 -27.2266L81.5469 -23.8908ZM91.049 -29.1579L83.5646 -36.6507L85.6214 -37.7907L90.5252 -32.4202L90.5992 -32.4612L88.7956 -39.5502L90.5566 -40.5264L95.6156 -35.2248L95.6938 -35.2682L93.7309 -42.2859L95.7876 -43.4259L98.1757 -33.1083L96.3408 -32.0912L91.4176 -36.9735L91.348 -36.9349L92.8839 -30.175L91.049 -29.1579ZM-14.2256 33.5623L-9.28939 42.4676L-10.9156 43.369L-17.8968 39.9117L-17.962 39.9478L-14.8552 45.5527L-16.7379 46.5964L-21.6742 37.6911L-20.0219 36.7752L-13.0736 40.2451L-12.9953 40.2017L-16.0997 34.6012L-14.2256 33.5623ZM-7.7338 41.6053L-12.67 32.7001L-6.66946 29.3739L-5.80899 30.9262L-9.92679 33.2087L-8.75057 35.3307L-4.9415 33.2193L-4.08104 34.7716L-7.8901 36.883L-6.71148 39.0093L-2.57629 36.7171L-1.71582 38.2695L-7.7338 41.6053ZM1.76821 36.3382L-5.71611 28.8454L-3.65938 27.7054L1.24449 33.0758L1.31841 33.0349L-0.485161 25.9459L1.27588 24.9697L6.33483 30.2713L6.4131 30.2279L4.4501 23.2102L6.50683 22.0701L8.89499 32.3878L7.06003 33.4049L2.13686 28.5226L2.06728 28.5612L3.60317 35.3211L1.76821 36.3382ZM17.7971 15.8119L22.7333 24.7171L21.1071 25.6185L14.1259 22.1612L14.0607 22.1973L17.1675 27.8022L15.2847 28.8459L10.3485 19.9407L12.0008 19.0248L18.9491 22.4946L19.0274 22.4512L15.923 16.8507L17.7971 15.8119ZM24.2889 23.8548L19.3526 14.9496L25.3532 11.6234L26.2137 13.1757L22.0959 15.4583L23.2721 17.5802L27.0812 15.4688L27.9417 17.0211L24.1326 19.1325L25.3112 21.2588L29.4464 18.9667L30.3069 20.519L24.2889 23.8548ZM33.7909 18.5878L26.3066 11.095L28.3633 9.9549L33.2672 15.3254L33.3411 15.2844L31.5375 8.1954L33.2986 7.21924L38.3575 12.5208L38.4358 12.4774L36.4728 5.45974L38.5295 4.31968L40.9177 14.6373L39.0827 15.6545L34.1596 10.7722L34.09 10.8107L35.6259 17.5706L33.7909 18.5878ZM49.8198 -1.9386L54.756 6.96662L53.1298 7.86806L46.1486 4.41072L46.0834 4.44688L49.1902 10.0518L47.3074 11.0954L42.3712 2.1902L44.0235 1.2743L50.9718 4.74416L51.0501 4.70078L47.9457 -0.899771L49.8198 -1.9386ZM56.3116 6.10434L51.3753 -2.80087L57.3759 -6.12705L58.2364 -4.57473L54.1186 -2.2922L55.2948 -0.170252L59.1039 -2.28165L59.9644 -0.729327L56.1553 1.38207L57.3339 3.50837L61.4691 1.2162L62.3296 2.76852L56.3116 6.10434ZM65.8136 0.83729L58.3293 -6.65551L60.386 -7.79557L65.2899 -2.42509L65.3638 -2.46606L63.5602 -9.55507L65.3213 -10.5312L70.3802 -5.22966L70.4585 -5.27304L68.4955 -12.2907L70.5522 -13.4308L72.9404 -3.11315L71.1054 -2.09601L66.1822 -6.97832L66.1127 -6.93975L67.6486 -0.179846L65.8136 0.83729ZM81.8424 -19.6891L86.7787 -10.7839L85.1524 -9.88241L78.1713 -13.3397L78.1061 -13.3036L81.2129 -7.6987L79.3301 -6.65505L74.3939 -15.5603L76.0462 -16.4762L82.9945 -13.0063L83.0728 -13.0497L79.9684 -18.6502L81.8424 -19.6891ZM88.3343 -11.6461L83.398 -20.5513L89.3986 -23.8775L90.2591 -22.3252L86.1413 -20.0427L87.3175 -17.9207L91.1266 -20.0321L91.987 -18.4798L88.178 -16.3684L89.3566 -14.2421L93.4918 -16.5343L94.3523 -14.9819L88.3343 -11.6461ZM97.8363 -16.9132L90.352 -24.406L92.4087 -25.546L97.3126 -20.1756L97.3865 -20.2165L95.5829 -27.3055L97.344 -28.2817L102.403 -22.9801L102.481 -23.0235L100.518 -30.0412L102.575 -31.1813L104.963 -20.8636L103.128 -19.8465L98.2049 -24.7288L98.1354 -24.6902L99.6713 -17.9303L97.8363 -16.9132ZM-7.4383 45.807L-2.50206 54.7122L-4.1283 55.6137L-11.1094 52.1563L-11.1747 52.1925L-8.06782 57.7974L-9.95061 58.841L-14.8869 49.9358L-13.2345 49.0199L-6.28623 52.4898L-6.20796 52.4464L-9.3124 46.8458L-7.4383 45.807ZM-0.94647 53.85L-5.88271 44.9447L0.117873 41.6186L0.978341 43.1709L-3.13945 45.4534L-1.96324 47.5754L1.84583 45.464L2.7063 47.0163L-1.10277 49.1277L0.0758545 51.254L4.21104 48.9618L5.07151 50.5141L-0.94647 53.85ZM8.55555 48.5829L1.07123 41.0901L3.12795 39.95L8.03183 45.3205L8.10575 45.2795L6.30217 38.1905L8.06321 37.2144L13.1222 42.516L13.2004 42.4726L11.2374 35.4549L13.2942 34.3148L15.6823 44.6325L13.8474 45.6496L8.92419 40.7673L8.85462 40.8059L10.3905 47.5658L8.55555 48.5829ZM24.5844 28.0565L29.5206 36.9618L27.8944 37.8632L20.9133 34.4059L20.848 34.442L23.9549 40.0469L22.0721 41.0906L17.1358 32.1853L18.7882 31.2694L25.7365 34.7393L25.8147 34.6959L22.7103 29.0954L24.5844 28.0565ZM31.0762 36.0995L26.14 27.1943L32.1406 23.8681L33.001 25.4204L28.8832 27.7029L30.0595 29.8249L33.8685 27.7135L34.729 29.2658L30.9199 31.3772L32.0985 33.5035L36.2337 31.2113L37.0942 32.7637L31.0762 36.0995ZM40.5782 30.8324L33.0939 23.3396L35.1506 22.1996L40.0545 27.5701L40.1284 27.5291L38.3249 20.4401L40.0859 19.4639L45.1449 24.7655L45.2231 24.7221L43.2601 17.7044L45.3169 16.5644L47.705 26.882L45.8701 27.8991L40.9469 23.0168L40.8773 23.0554L42.4132 29.8153L40.5782 30.8324ZM56.6071 10.3061L61.5433 19.2113L59.9171 20.1127L52.9359 16.6554L52.8707 16.6915L55.9776 22.2964L54.0948 23.3401L49.1585 14.4349L50.8109 13.519L57.7592 16.9888L57.8374 16.9455L54.733 11.3449L56.6071 10.3061ZM63.0989 18.349L58.1627 9.4438L64.1633 6.11762L65.0237 7.66995L60.9059 9.95248L62.0821 12.0744L65.8912 9.96302L66.7517 11.5153L62.9426 13.6267L64.1212 15.753L68.2564 13.4609L69.1169 15.0132L63.0989 18.349ZM72.6009 13.082L65.1166 5.58917L67.1733 4.44911L72.0772 9.81959L72.1511 9.77861L70.3476 2.68961L72.1086 1.71345L77.1676 7.01502L77.2458 6.97163L75.2828 -0.0460556L77.3395 -1.18612L79.7277 9.13152L77.8928 10.1487L72.9696 5.26636L72.9 5.30492L74.4359 12.0648L72.6009 13.082ZM88.6298 -7.44439L93.566 1.46082L91.9398 2.36227L84.9586 -1.09507L84.8934 -1.05892L88.0003 4.54598L86.1175 5.58962L81.1812 -3.31559L82.8336 -4.2315L89.7819 -0.761634L89.8601 -0.805019L86.7557 -6.40557L88.6298 -7.44439ZM95.1216 0.598548L90.1854 -8.30667L96.186 -11.6328L97.0464 -10.0805L92.9286 -7.79799L94.1048 -5.67605L97.9139 -7.78745L98.7744 -6.23512L94.9653 -4.12372L96.1439 -1.99743L100.279 -4.2896L101.14 -2.73727L95.1216 0.598548ZM104.624 -4.66851L97.1393 -12.1613L99.196 -13.3014L104.1 -7.93088L104.174 -7.97186L102.37 -15.0609L104.131 -16.037L109.19 -10.7355L109.269 -10.7788L107.306 -17.7965L109.362 -18.9366L111.75 -8.61895L109.915 -7.60181L104.992 -12.4841L104.923 -12.4455L106.459 -5.68564L104.624 -4.66851ZM-0.650965 58.0517L4.28528 66.9569L2.65903 67.8583L-4.3221 64.401L-4.38733 64.4372L-1.28048 70.0421L-3.16328 71.0857L-8.09952 62.1805L-6.44718 61.2646L0.501104 64.7344L0.579373 64.6911L-2.52506 59.0905L-0.650965 58.0517ZM5.84086 66.0946L0.904621 57.1894L6.90521 53.8632L7.76568 55.4156L3.64788 57.6981L4.8241 59.82L8.63316 57.7086L9.49363 59.261L5.68456 61.3724L6.86319 63.4987L10.9984 61.2065L11.8588 62.7588L5.84086 66.0946ZM15.3429 60.8276L7.85856 53.3348L9.91528 52.1947L14.8192 57.5652L14.8931 57.5242L13.0895 50.4352L14.8505 49.4591L19.9095 54.7606L19.9878 54.7172L18.0248 47.6996L20.0815 46.5595L22.4697 56.8771L20.6347 57.8943L15.7115 53.012L15.642 53.0505L17.1778 59.8104L15.3429 60.8276ZM31.3717 40.3012L36.308 49.2064L34.6817 50.1079L27.7006 46.6505L27.6354 46.6867L30.7422 52.2916L28.8594 53.3352L23.9232 44.43L25.5755 43.5141L32.5238 46.984L32.6021 46.9406L29.4976 41.34L31.3717 40.3012ZM37.8636 48.3442L32.9273 39.4389L38.9279 36.1128L39.7884 37.6651L35.6706 39.9476L36.8468 42.0696L40.6559 39.9582L41.5163 41.5105L37.7073 43.6219L38.8859 45.7482L43.0211 43.456L43.8815 45.0083L37.8636 48.3442ZM47.3656 43.0771L39.8813 35.5843L41.938 34.4443L46.8419 39.8147L46.9158 39.7738L45.1122 32.6848L46.8732 31.7086L51.9322 37.0102L52.0105 36.9668L50.0475 29.9491L52.1042 28.809L54.4924 39.1267L52.6574 40.1438L47.7342 35.2615L47.6646 35.3001L49.2005 42.06L47.3656 43.0771ZM63.3944 22.5507L68.3307 31.456L66.7044 32.3574L59.7233 28.9001L59.6581 28.9362L62.7649 34.5411L60.8821 35.5848L55.9459 26.6796L57.5982 25.7636L64.5465 29.2335L64.6248 29.1901L61.5203 23.5896L63.3944 22.5507ZM69.8863 30.5937L64.95 21.6885L70.9506 18.3623L71.8111 19.9146L67.6933 22.1972L68.8695 24.3191L72.6786 22.2077L73.539 23.76L69.73 25.8714L70.9086 27.9977L75.0438 25.7055L75.9042 27.2579L69.8863 30.5937ZM79.3883 25.3266L71.9039 17.8338L73.9607 16.6938L78.8645 22.0643L78.9385 22.0233L77.1349 14.9343L78.8959 13.9581L83.9549 19.2597L84.0332 19.2163L82.0702 12.1986L84.1269 11.0586L86.515 21.3762L84.6801 22.3933L79.7569 17.511L79.6873 17.5496L81.2232 24.3095L79.3883 25.3266ZM95.4171 4.80028L100.353 13.7055L98.7271 14.6069L91.746 11.1496L91.6808 11.1858L94.7876 16.7907L92.9048 17.8343L87.9686 8.92908L89.6209 8.01318L96.5692 11.483L96.6475 11.4397L93.543 5.83911L95.4171 4.80028ZM101.909 12.8432L96.9727 3.938L102.973 0.611825L103.834 2.16415L99.716 4.44668L100.892 6.56863L104.701 4.45723L105.562 6.00955L101.753 8.12095L102.931 10.2472L107.066 7.95508L107.927 9.5074L101.909 12.8432ZM111.411 7.57617L103.927 0.0833724L105.983 -1.05669L110.887 4.31379L110.961 4.27282L109.158 -2.81619L110.919 -3.79235L115.978 1.50922L116.056 1.46584L114.093 -5.55185L116.15 -6.69191L118.538 3.62573L116.703 4.64286L111.78 -0.239436L111.71 -0.200872L113.246 6.55903L111.411 7.57617ZM6.13637 70.2964L11.0726 79.2016L9.44637 80.103L2.46523 76.6457L2.40001 76.6818L5.50685 82.2867L3.62406 83.3304L-1.31219 74.4252L0.34015 73.5093L7.28844 76.9791L7.36671 76.9357L4.26227 71.3352L6.13637 70.2964ZM12.6282 78.3393L7.69196 69.4341L13.6925 66.1079L14.553 67.6602L10.4352 69.9428L11.6114 72.0647L15.4205 69.9533L16.281 71.5056L12.4719 73.617L13.6505 75.7433L17.7857 73.4512L18.6462 75.0035L12.6282 78.3393ZM22.1302 73.0723L14.6459 65.5795L16.7026 64.4394L21.6065 69.8099L21.6804 69.7689L19.8768 62.6799L21.6379 61.7037L26.6968 67.0053L26.7751 66.9619L24.8121 59.9442L26.8688 58.8042L29.257 69.1218L27.422 70.1389L22.4989 65.2566L22.4293 65.2952L23.9652 72.0551L22.1302 73.0723ZM38.1591 52.5459L43.0953 61.4511L41.4691 62.3526L34.4879 58.8952L34.4227 58.9314L37.5295 64.5363L35.6468 65.5799L30.7105 56.6747L32.3628 55.7588L39.3111 59.2287L39.3894 59.1853L36.285 53.5847L38.1591 52.5459ZM44.6509 60.5888L39.7146 51.6836L45.7152 48.3574L46.5757 49.9098L42.4579 52.1923L43.6341 54.3142L47.4432 52.2028L48.3037 53.7552L44.4946 55.8666L45.6732 57.9929L49.8084 55.7007L50.6689 57.253L44.6509 60.5888ZM54.1529 55.3218L46.6686 47.829L48.7253 46.6889L53.6292 52.0594L53.7031 52.0184L51.8995 44.9294L53.6606 43.9533L58.7195 49.2548L58.7978 49.2115L56.8348 42.1938L58.8915 41.0537L61.2797 51.3713L59.4447 52.3885L54.5216 47.5062L54.452 47.5447L55.9879 54.3046L54.1529 55.3218ZM70.1818 34.7954L75.118 43.7006L73.4918 44.6021L66.5106 41.1447L66.4454 41.1809L69.5522 46.7858L67.6694 47.8294L62.7332 38.9242L64.3855 38.0083L71.3338 41.4782L71.4121 41.4348L68.3077 35.8343L70.1818 34.7954ZM76.6736 42.8384L71.7373 33.9331L77.7379 30.607L78.5984 32.1593L74.4806 34.4418L75.6568 36.5638L79.4659 34.4524L80.3264 36.0047L76.5173 38.1161L77.6959 40.2424L81.8311 37.9502L82.6916 39.5025L76.6736 42.8384ZM86.1756 37.5713L78.6913 30.0785L80.748 28.9385L85.6519 34.3089L85.7258 34.268L83.9222 27.179L85.6833 26.2028L90.7422 31.5044L90.8205 31.461L88.8575 24.4433L90.9142 23.3032L93.3024 33.6209L91.4674 34.638L86.5442 29.7557L86.4747 29.7943L88.0106 36.5542L86.1756 37.5713ZM102.204 17.045L107.141 25.9502L105.514 26.8516L98.5333 23.3943L98.4681 23.4304L101.575 29.0353L99.6921 30.079L94.7559 21.1738L96.4082 20.2579L103.357 23.7277L103.435 23.6843L100.33 18.0838L102.204 17.045ZM108.696 25.0879L103.76 16.1827L109.761 12.8565L110.621 14.4088L106.503 16.6914L107.68 18.8133L111.489 16.7019L112.349 18.2542L108.54 20.3656L109.719 22.4919L113.854 20.1998L114.714 21.7521L108.696 25.0879ZM118.198 19.8208L110.714 12.328L112.771 11.188L117.675 16.5585L117.748 16.5175L115.945 9.42849L117.706 8.45232L122.765 13.7539L122.843 13.7105L120.88 6.69282L122.937 5.55276L125.325 15.8704L123.49 16.8875L118.567 12.0052L118.497 12.0438L120.033 18.8037L118.198 19.8208ZM12.9237 82.541L17.8599 91.4463L16.2337 92.3477L9.25256 88.8904L9.18734 88.9265L12.2942 94.5314L10.4114 95.5751L5.47515 86.6698L7.12748 85.7539L14.0758 89.2238L14.154 89.1804L11.0496 83.5799L12.9237 82.541ZM19.4155 90.584L14.4793 81.6788L20.4799 78.3526L21.3403 79.9049L17.2225 82.1874L18.3988 84.3094L22.2078 82.198L23.0683 83.7503L19.2592 85.8617L20.4379 87.988L24.573 85.6958L25.4335 87.2482L19.4155 90.584ZM28.9175 85.3169L21.4332 77.8241L23.49 76.6841L28.3938 82.0545L28.4678 82.0136L26.6642 74.9246L28.4252 73.9484L33.4842 79.25L33.5624 79.2066L31.5994 72.1889L33.6562 71.0488L36.0443 81.3665L34.2094 82.3836L29.2862 77.5013L29.2166 77.5399L30.7525 84.2998L28.9175 85.3169ZM44.9464 64.7906L49.8826 73.6958L48.2564 74.5972L41.2753 71.1399L41.21 71.176L44.3169 76.7809L42.4341 77.8246L37.4978 68.9194L39.1502 68.0035L46.0985 71.4733L46.1767 71.4299L43.0723 65.8294L44.9464 64.7906ZM51.4382 72.8335L46.502 63.9283L52.5026 60.6021L53.363 62.1544L49.2452 64.437L50.4215 66.5589L54.2305 64.4475L55.091 65.9998L51.2819 68.1112L52.4606 70.2375L56.5957 67.9454L57.4562 69.4977L51.4382 72.8335ZM60.9402 67.5665L53.4559 60.0737L55.5126 58.9336L60.4165 64.3041L60.4904 64.2631L58.6869 57.1741L60.4479 56.1979L65.5069 61.4995L65.5851 61.4561L63.6221 54.4384L65.6789 53.2984L68.067 63.616L66.2321 64.6332L61.3089 59.7509L61.2393 59.7894L62.7752 66.5493L60.9402 67.5665ZM76.9691 47.0401L81.9053 55.9453L80.2791 56.8468L73.298 53.3894L73.2327 53.4256L76.3396 59.0305L74.4568 60.0741L69.5205 51.1689L71.1729 50.253L78.1212 53.7229L78.1994 53.6795L75.095 48.0789L76.9691 47.0401ZM83.4609 55.083L78.5247 46.1778L84.5253 42.8516L85.3857 44.404L81.2679 46.6865L82.4442 48.8084L86.2532 46.697L87.1137 48.2494L83.3046 50.3608L84.4832 52.4871L88.6184 50.1949L89.4789 51.7472L83.4609 55.083ZM92.9629 49.816L85.4786 42.3232L87.5353 41.1831L92.4392 46.5536L92.5131 46.5126L90.7096 39.4236L92.4706 38.4475L97.5296 43.749L97.6078 43.7057L95.6448 36.688L97.7016 35.5479L100.09 45.8655L98.2548 46.8827L93.3316 42.0004L93.262 42.0389L94.7979 48.7989L92.9629 49.816ZM108.992 29.2896L113.928 38.1948L112.302 39.0963L105.321 35.6389L105.255 35.6751L108.362 41.28L106.479 42.3236L101.543 33.4184L103.196 32.5025L110.144 35.9724L110.222 35.929L107.118 30.3285L108.992 29.2896ZM115.484 37.3326L110.547 28.4274L116.548 25.1012L117.408 26.6535L113.291 28.936L114.467 31.058L118.276 28.9466L119.136 30.4989L115.327 32.6103L116.506 34.7366L120.641 32.4444L121.502 33.9968L115.484 37.3326ZM124.986 32.0655L117.501 24.5727L119.558 23.4327L124.462 28.8031L124.536 28.7622L122.732 21.6732L124.493 20.697L129.552 25.9986L129.631 25.9552L127.668 18.9375L129.724 17.7974L132.112 28.1151L130.277 29.1322L125.354 24.2499L125.285 24.2885L126.821 31.0484L124.986 32.0655ZM19.711 94.7857L24.6473 103.691L23.021 104.592L16.0399 101.135L15.9747 101.171L19.0815 106.776L17.1987 107.82L12.2625 98.9145L13.9148 97.9986L20.8631 101.468L20.9414 101.425L17.8369 95.8245L19.711 94.7857ZM26.2029 102.829L21.2666 93.9234L27.2672 90.5973L28.1277 92.1496L24.0099 94.4321L25.1861 96.5541L28.9952 94.4427L29.8556 95.995L26.0466 98.1064L27.2252 100.233L31.3604 97.9405L32.2208 99.4928L26.2029 102.829ZM35.7049 97.5616L28.2206 90.0688L30.2773 88.9287L35.1812 94.2992L35.2551 94.2582L33.4515 87.1692L35.2126 86.1931L40.2715 91.4947L40.3498 91.4513L38.3868 84.4336L40.4435 83.2935L42.8317 93.6112L40.9967 94.6283L36.0735 89.746L36.004 89.7846L37.5398 96.5445L35.7049 97.5616ZM51.7337 77.0352L56.67 85.9405L55.0437 86.8419L48.0626 83.3846L47.9974 83.4207L51.1042 89.0256L49.2214 90.0693L44.2852 81.164L45.9375 80.2481L52.8858 83.718L52.9641 83.6746L49.8596 78.0741L51.7337 77.0352ZM58.2256 85.0782L53.2893 76.173L59.2899 72.8468L60.1504 74.3991L56.0326 76.6816L57.2088 78.8036L61.0179 76.6922L61.8783 78.2445L58.0693 80.3559L59.2479 82.4822L63.3831 80.19L64.2435 81.7424L58.2256 85.0782ZM67.7276 79.8111L60.2433 72.3183L62.3 71.1783L67.2039 76.5488L67.2778 76.5078L65.4742 69.4188L67.2352 68.4426L72.2942 73.7442L72.3725 73.7008L70.4095 66.6831L72.4662 65.5431L74.8544 75.8607L73.0194 76.8778L68.0962 71.9955L68.0266 72.0341L69.5625 78.794L67.7276 79.8111ZM83.7564 59.2848L88.6927 68.19L87.0664 69.0914L80.0853 65.6341L80.0201 65.6702L83.1269 71.2751L81.2441 72.3188L76.3079 63.4136L77.9602 62.4977L84.9085 65.9675L84.9868 65.9241L81.8823 60.3236L83.7564 59.2848ZM90.2483 67.3277L85.312 58.4225L91.3126 55.0963L92.1731 56.6486L88.0553 58.9312L89.2315 61.0531L93.0406 58.9417L93.901 60.494L90.092 62.6054L91.2706 64.7317L95.4058 62.4396L96.2662 63.9919L90.2483 67.3277ZM99.7503 62.0607L92.266 54.5679L94.3227 53.4278L99.2266 58.7983L99.3005 58.7573L97.4969 51.6683L99.2579 50.6921L104.317 55.9937L104.395 55.9503L102.432 48.9326L104.489 47.7926L106.877 58.1102L105.042 59.1274L100.119 54.2451L100.049 54.2836L101.585 61.0435L99.7503 62.0607ZM115.779 41.5343L120.715 50.4395L119.089 51.341L112.108 47.8836L112.043 47.9198L115.15 53.5247L113.267 54.5683L108.331 45.6631L109.983 44.7472L116.931 48.2171L117.009 48.1737L113.905 42.5731L115.779 41.5343ZM122.271 49.5772L117.335 40.672L123.335 37.3458L124.196 38.8982L120.078 41.1807L121.254 43.3027L125.063 41.1912L125.924 42.7436L122.115 44.855L123.293 46.9813L127.428 44.6891L128.289 46.2414L122.271 49.5772ZM131.773 44.3102L124.289 36.8174L126.345 35.6773L131.249 41.0478L131.323 41.0068L129.52 33.9178L131.281 32.9417L136.34 38.2432L136.418 38.1999L134.455 31.1822L136.512 30.0421L138.9 40.3598L137.065 41.3769L132.142 36.4946L132.072 36.5332L133.608 43.2931L131.773 44.3102ZM26.4984 107.03L31.4346 115.936L29.8084 116.837L22.8272 113.38L22.762 113.416L25.8689 119.021L23.9861 120.064L19.0498 111.159L20.7022 110.243L27.6504 113.713L27.7287 113.67L24.6243 108.069L26.4984 107.03ZM32.9902 115.073L28.054 106.168L34.0545 102.842L34.915 104.394L30.7972 106.677L31.9734 108.799L35.7825 106.687L36.643 108.24L32.8339 110.351L34.0125 112.477L38.1477 110.185L39.0082 111.738L32.9902 115.073ZM42.4922 109.806L35.0079 102.313L37.0646 101.173L41.9685 106.544L42.0424 106.503L40.2388 99.4139L41.9999 98.4378L47.0588 103.739L47.1371 103.696L45.1741 96.6783L47.2308 95.5382L49.619 105.856L47.784 106.873L42.8609 101.991L42.7913 102.029L44.3272 108.789L42.4922 109.806ZM58.5211 89.2799L63.4573 98.1851L61.8311 99.0866L54.8499 95.6292L54.7847 95.6654L57.8915 101.27L56.0088 102.314L51.0725 93.4087L52.7248 92.4928L59.6731 95.9627L59.7514 95.9193L56.647 90.3187L58.5211 89.2799ZM65.0129 97.3229L60.0767 88.4176L66.0772 85.0915L66.9377 86.6438L62.8199 88.9263L63.9961 91.0483L67.8052 88.9369L68.6657 90.4892L64.8566 92.6006L66.0352 94.7269L70.1704 92.4347L71.0309 93.987L65.0129 97.3229ZM74.5149 92.0558L67.0306 84.563L69.0873 83.4229L73.9912 88.7934L74.0651 88.7525L72.2615 81.6634L74.0226 80.6873L79.0815 85.9889L79.1598 85.9455L77.1968 78.9278L79.2535 77.7877L81.6417 88.1054L79.8067 89.1225L74.8836 84.2402L74.814 84.2788L76.3499 91.0387L74.5149 92.0558ZM90.5438 71.5294L95.48 80.4347L93.8538 81.3361L86.8726 77.8788L86.8074 77.9149L89.9142 83.5198L88.0314 84.5635L83.0952 75.6582L84.7475 74.7423L91.6958 78.2122L91.7741 78.1688L88.6697 72.5683L90.5438 71.5294ZM97.0356 79.5724L92.0993 70.6672L98.0999 67.341L98.9604 68.8933L94.8426 71.1758L96.0188 73.2978L99.8279 71.1864L100.688 72.7387L96.8793 74.8501L98.0579 76.9764L102.193 74.6842L103.054 76.2366L97.0356 79.5724ZM106.538 74.3053L99.0533 66.8125L101.11 65.6725L106.014 71.043L106.088 71.002L104.284 63.913L106.045 62.9368L111.104 68.2384L111.182 68.195L109.219 61.1773L111.276 60.0373L113.664 70.3549L111.829 71.372L106.906 66.4897L106.837 66.5283L108.373 73.2882L106.538 74.3053ZM122.566 53.779L127.503 62.6842L125.876 63.5856L118.895 60.1283L118.83 60.1645L121.937 65.7693L120.054 66.813L115.118 57.9078L116.77 56.9919L123.719 60.4617L123.797 60.4184L120.692 54.8178L122.566 53.779ZM129.058 61.8219L124.122 52.9167L130.123 49.5905L130.983 51.1428L126.865 53.4254L128.042 55.5473L131.851 53.4359L132.711 54.9882L128.902 57.0997L130.081 59.2259L134.216 56.9338L135.076 58.4861L129.058 61.8219ZM138.56 56.5549L131.076 49.0621L133.133 47.922L138.037 53.2925L138.11 53.2515L136.307 46.1625L138.068 45.1863L143.127 50.4879L143.205 50.4445L141.242 43.4268L143.299 42.2868L145.687 52.6044L143.852 53.6216L138.929 48.7393L138.859 48.7778L140.395 55.5377L138.56 56.5549Z" fill="white" fill-opacity="0.1"/>
</g>
<defs>
<filter id="filter0_f_1_125" x="-43.0361" y="-68.9153" width="192.271" height="189.98" filterUnits="userSpaceOnUse" color-interpolation-filters="sRGB">
<feFlood flood-opacity="0" result="BackgroundImageFix"/>
<feBlend mode="normal" in="SourceGraphic" in2="BackgroundImageFix" result="shape"/>
<feGaussianBlur stdDeviation="0.5" result="effect1_foregroundBlur_1_125"/>
</filter>
</defs>
</svg>
