<svg width="210" height="53" viewBox="0 0 210 53" fill="none" xmlns="http://www.w3.org/2000/svg">
<g filter="url(#filter0_f_6_3)">
<path d="M-28.8494 5.71131L-29.3023 4.02094L-25.8897 -4.49334L-31.1803 -3.07572L-31.8391 -5.53444L-22.6628 -7.99322L-22.2099 -6.30285L-25.6225 2.21143L-20.3319 0.793806L-19.6731 3.25253L-28.8494 5.71131ZM-15.2427 2.06541L-18.5356 2.94775L-17.8373 -9.28621L-13.6663 -10.4038L-6.94453 -0.158076L-10.2375 0.724261L-14.8785 -6.76144L-14.9663 -6.73791L-15.2427 2.06541ZM-17.0456 -2.20436L-10.8549 -3.86315L-10.2431 -1.58006L-16.4338 0.0787374L-17.0456 -2.20436ZM2.22093 -10.1432L-0.874424 -9.31384C-0.965003 -9.56407 -1.0858 -9.78072 -1.23681 -9.96378C-1.38416 -10.1478 -1.56026 -10.2928 -1.7651 -10.3987C-1.96726 -10.5092 -2.19438 -10.5739 -2.44645 -10.5926C-2.69951 -10.615 -2.97239 -10.587 -3.26509 -10.5085C-3.77732 -10.3713 -4.17756 -10.1307 -4.4658 -9.7868C-4.75038 -9.44388 -4.92189 -9.01558 -4.98032 -8.5019C-5.03509 -7.98919 -4.97523 -7.4072 -4.80072 -6.75593C-4.61641 -6.06808 -4.37053 -5.51632 -4.06308 -5.10067C-3.75296 -4.68966 -3.3909 -4.41413 -2.97691 -4.27408C-2.5639 -4.1377 -2.11042 -4.13568 -1.61648 -4.26803C-1.33476 -4.34352 -1.09161 -4.44592 -0.887051 -4.57524C-0.683472 -4.70822 -0.517495 -4.86446 -0.389123 -5.04395C-0.26075 -5.22344 -0.170831 -5.42204 -0.119363 -5.63975C-0.0652176 -5.8621 -0.052203 -6.09892 -0.0803198 -6.3502L3.02092 -7.15765C3.11178 -6.6722 3.10813 -6.15162 3.00998 -5.59592C2.91084 -5.04387 2.70494 -4.50244 2.39228 -3.97161C2.0823 -3.44542 1.65014 -2.97277 1.09579 -2.55364C0.541434 -2.13452 -0.147358 -1.81467 -0.970591 -1.59408C-2.00238 -1.31762 -2.98737 -1.29094 -3.92557 -1.51405C-4.86011 -1.73815 -5.68039 -2.21638 -6.38643 -2.94875C-7.0888 -3.6821 -7.60665 -4.67078 -7.93998 -5.91477C-8.27527 -7.16608 -8.31613 -8.28453 -8.06258 -9.2701C-7.81 -10.2593 -7.33275 -11.0833 -6.63082 -11.7419C-5.92988 -12.4043 -5.07449 -12.8707 -4.06465 -13.1413C-3.35485 -13.3315 -2.67577 -13.4095 -2.02742 -13.3754C-1.37908 -13.3413 -0.779887 -13.1979 -0.229856 -12.9453C0.319196 -12.6964 0.803475 -12.3379 1.22298 -11.8699C1.64249 -11.4019 1.97514 -10.8264 2.22093 -10.1432ZM5.53156 -3.50103L5.07862 -5.1914L8.49125 -13.7057L3.20061 -12.2881L2.5418 -14.7468L11.7181 -17.2056L12.171 -15.5152L8.7584 -7.00091L14.049 -8.41853L14.7079 -5.95981L5.53156 -3.50103ZM12.7458 -17.4809L16.1485 -18.3927L19.5672 -14.4147L19.6551 -14.4382L20.6268 -19.5927L24.0295 -20.5044L21.9671 -11.6931L22.9141 -8.15867L19.8846 -7.34692L18.9376 -10.8813L12.7458 -17.4809ZM34.7494 -23.3768L37.7611 -12.1369L35.2146 -11.4546L29.571 -16.2717L29.5051 -16.254L31.0874 -10.3487L28.036 -9.53108L25.0243 -20.7709L27.6147 -21.465L33.1866 -16.6522L33.2744 -16.6758L31.6979 -22.5591L34.7494 -23.3768ZM42.1242 -13.306L38.8313 -12.4237L39.5296 -24.6576L43.7007 -25.7753L50.4224 -15.5295L47.1295 -14.6472L42.4884 -22.1329L42.4006 -22.1093L42.1242 -13.306ZM40.3213 -17.5758L46.512 -19.2346L47.1238 -16.9515L40.9331 -15.2927L40.3213 -17.5758ZM53.1253 -28.3006L56.1328 -29.1065L58.1975 -21.401C58.3899 -20.6683 58.3777 -19.9748 58.1608 -19.3206C57.9467 -18.6711 57.5611 -18.105 57.0041 -17.6225C56.4498 -17.1445 55.7574 -16.7943 54.9269 -16.5718C54.2061 -16.3786 53.5142 -16.3266 52.8511 -16.4156C52.1871 -16.5082 51.6056 -16.7759 51.1065 -17.2187C50.6065 -17.6651 50.2427 -18.3205 50.015 -19.185L53.0664 -20.0026C53.1529 -19.7238 53.2642 -19.4987 53.4003 -19.3274C53.5401 -19.157 53.7 -19.043 53.8802 -18.9854C54.063 -18.9324 54.266 -18.9358 54.4892 -18.9956C54.716 -19.0564 54.893 -19.1568 55.0202 -19.2967C55.1511 -19.4377 55.2308 -19.6159 55.2593 -19.8314C55.2869 -20.0505 55.2638 -20.3051 55.19 -20.5951L53.1253 -28.3006ZM57.579 -29.494L61.3768 -30.5116L65.6951 -24.8452L65.8268 -24.8805L66.7333 -31.9468L70.5312 -32.9645L73.5429 -21.7246L70.5573 -20.9246L68.8162 -27.4227L68.7283 -27.3991L67.9433 -20.3183L66.1432 -19.836L61.9112 -25.6196L61.8234 -25.596L63.5763 -19.0541L60.5907 -18.2541L57.579 -29.494ZM71.5163 -33.2284L74.919 -34.1402L78.3378 -30.1622L78.4256 -30.1858L79.3974 -35.3402L82.8001 -36.2519L80.7376 -27.4406L81.6847 -23.9062L78.6552 -23.0944L77.7081 -26.6289L71.5163 -33.2284ZM89.9293 -26.1153L89.4764 -27.8057L92.889 -36.32L87.5984 -34.9024L86.9396 -37.3611L96.1159 -39.8199L96.5688 -38.1295L93.1562 -29.6152L98.4468 -31.0328L99.1056 -28.5741L89.9293 -26.1153ZM103.536 -29.7612L100.243 -28.8789L100.941 -41.1129L105.112 -42.2305L111.834 -31.9847L108.541 -31.1024L103.9 -38.5881L103.812 -38.5646L103.536 -29.7612ZM101.733 -34.031L107.924 -35.6898L108.536 -33.4067L102.345 -31.7479L101.733 -34.031ZM121 -41.9699L117.904 -41.1405C117.814 -41.3907 117.693 -41.6074 117.542 -41.7904C117.395 -41.9745 117.218 -42.1194 117.014 -42.2253C116.811 -42.3359 116.584 -42.4005 116.332 -42.4192C116.079 -42.4416 115.806 -42.4136 115.514 -42.3352C115.001 -42.1979 114.601 -41.9573 114.313 -41.6135C114.028 -41.2705 113.857 -40.8422 113.798 -40.3285C113.744 -39.8158 113.803 -39.2339 113.978 -38.5826C114.162 -37.8947 114.408 -37.343 114.716 -36.9273C115.026 -36.5163 115.388 -36.2408 115.802 -36.1007C116.215 -35.9644 116.668 -35.9623 117.162 -36.0947C117.444 -36.1702 117.687 -36.2726 117.892 -36.4019C118.095 -36.5349 118.261 -36.6911 118.39 -36.8706C118.518 -37.0501 118.608 -37.2487 118.659 -37.4664C118.713 -37.6888 118.726 -37.9256 118.698 -38.1769L121.8 -38.9843C121.89 -38.4989 121.887 -37.9783 121.789 -37.4226C121.69 -36.8705 121.484 -36.3291 121.171 -35.7983C120.861 -35.2721 120.429 -34.7994 119.874 -34.3803C119.32 -33.9612 118.631 -33.6413 117.808 -33.4207C116.776 -33.1443 115.791 -33.1176 114.853 -33.3407C113.919 -33.5648 113.098 -34.043 112.392 -34.7754C111.69 -35.5088 111.172 -36.4974 110.839 -37.7414C110.503 -38.9927 110.463 -40.1112 110.716 -41.0968C110.969 -42.086 111.446 -42.9099 112.148 -43.5686C112.849 -44.2309 113.704 -44.6974 114.714 -44.9679C115.424 -45.1581 116.103 -45.2362 116.751 -45.2021C117.4 -45.1679 117.999 -45.0246 118.549 -44.772C119.098 -44.523 119.582 -44.1645 120.002 -43.6966C120.421 -43.2286 120.754 -42.653 121 -41.9699ZM124.31 -35.3277L123.857 -37.0181L127.27 -45.5323L121.979 -44.1147L121.32 -46.5734L130.497 -49.0322L130.95 -47.3418L127.537 -38.8276L132.828 -40.2452L133.487 -37.7865L124.31 -35.3277ZM131.524 -49.3076L134.927 -50.2193L138.346 -46.2414L138.434 -46.2649L139.406 -51.4193L142.808 -52.3311L140.746 -43.5197L141.693 -39.9853L138.663 -39.1736L137.716 -42.708L131.524 -49.3076ZM153.528 -55.2034L156.54 -43.9636L153.993 -43.2812L148.35 -48.0983L148.284 -48.0807L149.866 -42.1754L146.815 -41.3577L143.803 -52.5976L146.393 -53.2917L151.965 -48.4789L152.053 -48.5024L150.477 -54.3858L153.528 -55.2034ZM160.903 -45.1327L157.61 -44.2503L158.308 -56.4843L162.479 -57.6019L169.201 -47.3562L165.908 -46.4738L161.267 -53.9595L161.179 -53.936L160.903 -45.1327ZM159.1 -49.4024L165.291 -51.0612L165.902 -48.7781L159.712 -47.1193L159.1 -49.4024ZM171.904 -60.1272L174.912 -60.9331L176.976 -53.2277C177.169 -52.4949 177.156 -51.8015 176.94 -51.1473C176.725 -50.4977 176.34 -49.9317 175.783 -49.4491C175.229 -48.9712 174.536 -48.621 173.706 -48.3984C172.985 -48.2053 172.293 -48.1532 171.63 -48.2422C170.966 -48.3349 170.384 -48.6026 169.885 -49.0453C169.385 -49.4917 169.021 -50.1472 168.794 -51.0116L171.845 -51.8293C171.932 -51.5505 172.043 -51.3254 172.179 -51.154C172.319 -50.9836 172.479 -50.8696 172.659 -50.812C172.842 -50.7591 173.045 -50.7625 173.268 -50.8223C173.495 -50.8831 173.672 -50.9834 173.799 -51.1234C173.93 -51.2643 174.009 -51.4425 174.038 -51.658C174.066 -51.8772 174.042 -52.1318 173.969 -52.4218L171.904 -60.1272ZM176.358 -61.3206L180.156 -62.3382L184.474 -56.6719L184.605 -56.7072L185.512 -63.7735L189.31 -64.7911L192.322 -53.5513L189.336 -52.7513L187.595 -59.2493L187.507 -59.2258L186.722 -52.145L184.922 -51.6626L180.69 -57.4462L180.602 -57.4227L182.355 -50.8807L179.369 -50.0807L176.358 -61.3206ZM190.295 -65.0551L193.698 -65.9668L197.116 -61.9889L197.204 -62.0124L198.176 -67.1668L201.579 -68.0786L199.516 -59.2673L200.463 -55.7328L197.434 -54.9211L196.487 -58.4555L190.295 -65.0551ZM-23.9318 24.0639L-24.3847 22.3735L-20.9721 13.8592L-26.2627 15.2769L-26.9216 12.8182L-17.7453 10.3594L-17.2923 12.0497L-20.705 20.564L-15.4143 19.1464L-14.7555 21.6051L-23.9318 24.0639ZM-10.3251 20.418L-13.6181 21.3003L-12.9198 9.06638L-8.74871 7.94875L-2.02696 18.1945L-5.31989 19.0769L-9.96093 11.5912L-10.0487 11.6147L-10.3251 20.418ZM-12.128 16.1482L-5.93733 14.4894L-5.32558 16.7725L-11.5163 18.4313L-12.128 16.1482ZM7.13849 8.20936L4.04314 9.03875C3.95256 8.78852 3.83176 8.57187 3.68075 8.38881C3.5334 8.20477 3.35731 8.0598 3.15246 7.9539C2.9503 7.84337 2.72318 7.77874 2.47111 7.76001C2.21805 7.73762 1.94518 7.76564 1.65247 7.84407C1.14024 7.98132 0.740001 8.2219 0.451762 8.56579C0.167182 8.90871 -0.0043247 9.33701 -0.0627575 9.85069C-0.117531 10.3634 -0.0576651 10.9454 0.116842 11.5967C0.301152 12.2845 0.547032 12.8363 0.85448 13.2519C1.16461 13.6629 1.52666 13.9385 1.94065 14.0785C2.35366 14.2149 2.80714 14.2169 3.30108 14.0846C3.58281 14.0091 3.82595 13.9067 4.03051 13.7773C4.23409 13.6444 4.40007 13.4881 4.52844 13.3086C4.65681 13.1291 4.74673 12.9305 4.7982 12.7128C4.85234 12.4905 4.86536 12.2537 4.83724 12.0024L7.93848 11.1949C8.02934 11.6804 8.02569 12.201 7.92754 12.7567C7.8284 13.3087 7.6225 13.8502 7.30985 14.381C6.99987 14.9072 6.5677 15.3798 6.01335 15.7989C5.459 16.2181 4.7702 16.5379 3.94697 16.7585C2.91519 17.035 1.9302 17.0616 0.991996 16.8385C0.0574564 16.6144 -0.76283 16.1362 -1.46886 15.4038C-2.17124 14.6705 -2.68909 13.6818 -3.02242 12.4378C-3.35771 11.1865 -3.39857 10.0681 -3.14502 9.08249C-2.89244 8.09326 -2.41519 7.26932 -1.71326 6.61066C-1.01231 5.94834 -0.156925 5.48188 0.852907 5.2113C1.56272 5.02111 2.24179 4.94307 2.89014 4.97719C3.53849 5.0113 4.13767 5.15467 4.68771 5.40728C5.23676 5.65623 5.72104 6.0147 6.14054 6.48267C6.56005 6.95065 6.8927 7.52621 7.13849 8.20936ZM10.4491 14.8516L9.99619 13.1612L13.4088 4.64691L8.11817 6.06453L7.45936 3.60581L16.6357 1.14703L17.0886 2.8374L13.676 11.3517L18.9666 9.93406L19.6254 12.3928L10.4491 14.8516ZM17.6633 0.871667L21.066 -0.0400819L24.4848 3.93789L24.5726 3.91436L25.5444 -1.24006L28.9471 -2.15181L26.8846 6.65951L27.8317 10.1939L24.8022 11.0057L23.8551 7.47126L17.6633 0.871667ZM39.6669 -5.02419L42.6787 6.21568L40.1321 6.89802L34.4885 2.08092L34.4227 2.09856L36.005 8.00388L32.9535 8.82151L29.9418 -2.41835L32.5323 -3.11246L38.1041 1.70034L38.1919 1.67681L36.6155 -4.20655L39.6669 -5.02419ZM47.0418 5.04658L43.7489 5.92892L44.4472 -6.30505L48.6182 -7.42267L55.34 2.82309L52.047 3.70543L47.406 -3.78027L47.3182 -3.75674L47.0418 5.04658ZM45.2389 0.776806L51.4296 -0.881989L52.0414 1.40111L45.8507 3.0599L45.2389 0.776806ZM58.0429 -9.948L61.0504 -10.7539L63.1151 -3.04841C63.3075 -2.31567 63.2953 -1.62221 63.0784 -0.968035C62.8642 -0.318497 62.4786 0.247554 61.9217 0.730119C61.3674 1.20804 60.675 1.55828 59.8444 1.78082C59.1237 1.97396 58.4317 2.02603 57.7687 1.93703C57.1047 1.84437 56.5231 1.57667 56.0241 1.13392C55.5241 0.687513 55.1603 0.0320792 54.9325 -0.83238L57.984 -1.65001C58.0705 -1.37123 58.1817 -1.14615 58.3179 -0.97478C58.4576 -0.804392 58.6176 -0.690392 58.7977 -0.63278C58.9805 -0.579807 59.1835 -0.583222 59.4067 -0.643025C59.6336 -0.703808 59.8106 -0.804182 59.9378 -0.944145C60.0687 -1.08509 60.1484 -1.2633 60.1769 -1.47879C60.2044 -1.69793 60.1813 -1.95252 60.1075 -2.24254L58.0429 -9.948ZM62.4966 -11.1414L66.2944 -12.159L70.6126 -6.49265L70.7444 -6.52794L71.6509 -13.5943L75.4487 -14.6119L78.4604 -3.37202L75.4749 -2.57204L73.7337 -9.07008L73.6459 -9.04656L72.8609 -1.96574L71.0608 -1.4834L66.8288 -7.26696L66.7409 -7.24343L68.4939 -0.701482L65.5083 0.0985043L62.4966 -11.1414ZM76.4339 -14.8759L79.8366 -15.7876L83.2554 -11.8096L83.3432 -11.8332L84.3149 -16.9876L87.7176 -17.8993L85.6552 -9.08801L86.6022 -5.5536L83.5727 -4.74185L82.6257 -8.27626L76.4339 -14.8759ZM94.8469 -7.76276L94.394 -9.45313L97.8066 -17.9674L92.5159 -16.5498L91.8571 -19.0085L101.033 -21.4673L101.486 -19.7769L98.0737 -11.2626L103.364 -12.6803L104.023 -10.2215L94.8469 -7.76276ZM108.454 -11.4086L105.161 -10.5263L105.859 -22.7603L110.03 -23.8779L116.752 -13.6321L113.459 -12.7498L108.818 -20.2355L108.73 -20.212L108.454 -11.4086ZM106.651 -15.6784L112.841 -17.3372L113.453 -15.0541L107.262 -13.3953L106.651 -15.6784ZM125.917 -23.6173L122.822 -22.7879C122.731 -23.0381 122.61 -23.2548 122.459 -23.4378C122.312 -23.6219 122.136 -23.7669 121.931 -23.8728C121.729 -23.9833 121.502 -24.0479 121.25 -24.0666C120.997 -24.089 120.724 -24.061 120.431 -23.9826C119.919 -23.8453 119.519 -23.6048 119.23 -23.2609C118.946 -22.9179 118.774 -22.4896 118.716 -21.976C118.661 -21.4633 118.721 -20.8813 118.896 -20.23C119.08 -19.5421 119.326 -18.9904 119.633 -18.5747C119.943 -18.1637 120.305 -17.8882 120.719 -17.7481C121.132 -17.6118 121.586 -17.6097 122.08 -17.7421C122.361 -17.8176 122.605 -17.92 122.809 -18.0493C123.013 -18.1823 123.179 -18.3385 123.307 -18.518C123.436 -18.6975 123.525 -18.8961 123.577 -19.1138C123.631 -19.3362 123.644 -19.573 123.616 -19.8243L126.717 -20.6317C126.808 -20.1463 126.804 -19.6257 126.706 -19.07C126.607 -18.5179 126.401 -17.9765 126.089 -17.4457C125.779 -16.9195 125.346 -16.4468 124.792 -16.0277C124.238 -15.6086 123.549 -15.2887 122.726 -15.0681C121.694 -14.7917 120.709 -14.765 119.771 -14.9881C118.836 -15.2122 118.016 -15.6904 117.31 -16.4228C116.607 -17.1562 116.09 -18.1448 115.756 -19.3888C115.421 -20.6401 115.38 -21.7586 115.634 -22.7442C115.886 -23.7334 116.363 -24.5573 117.065 -25.216C117.766 -25.8783 118.622 -26.3448 119.632 -26.6154C120.341 -26.8055 121.02 -26.8836 121.669 -26.8495C122.317 -26.8154 122.916 -26.672 123.466 -26.4194C124.015 -26.1704 124.5 -25.812 124.919 -25.344C125.339 -24.876 125.671 -24.3004 125.917 -23.6173ZM129.228 -16.9751L128.775 -18.6655L132.188 -27.1797L126.897 -25.7621L126.238 -28.2208L135.414 -30.6796L135.867 -28.9893L132.455 -20.475L137.745 -21.8926L138.404 -19.4339L129.228 -16.9751ZM136.442 -30.955L139.845 -31.8667L143.264 -27.8888L143.351 -27.9123L144.323 -33.0667L147.726 -33.9785L145.663 -25.1671L146.61 -21.6327L143.581 -20.821L142.634 -24.3554L136.442 -30.955ZM158.446 -36.8508L161.457 -25.611L158.911 -24.9286L153.267 -29.7457L153.201 -29.7281L154.784 -23.8228L151.732 -23.0051L148.721 -34.245L151.311 -34.9391L156.883 -30.1263L156.971 -30.1498L155.394 -36.0332L158.446 -36.8508ZM165.82 -26.7801L162.528 -25.8977L163.226 -38.1317L167.397 -39.2493L174.119 -29.0036L170.826 -28.1212L166.185 -35.6069L166.097 -35.5834L165.82 -26.7801ZM164.018 -31.0498L170.208 -32.7086L170.82 -30.4255L164.629 -28.7668L164.018 -31.0498ZM176.822 -41.7747L179.829 -42.5805L181.894 -34.8751C182.086 -34.1423 182.074 -33.4489 181.857 -32.7947C181.643 -32.1452 181.257 -31.5791 180.7 -31.0965C180.146 -30.6186 179.454 -30.2684 178.623 -30.0458C177.902 -29.8527 177.21 -29.8006 176.547 -29.8896C175.883 -29.9823 175.302 -30.25 174.803 -30.6927C174.303 -31.1391 173.939 -31.7946 173.711 -32.659L176.763 -33.4767C176.849 -33.1979 176.96 -32.9728 177.097 -32.8014C177.236 -32.631 177.396 -32.517 177.576 -32.4594C177.759 -32.4065 177.962 -32.4099 178.185 -32.4697C178.412 -32.5305 178.589 -32.6308 178.716 -32.7708C178.847 -32.9117 178.927 -33.09 178.956 -33.3054C178.983 -33.5246 178.96 -33.7792 178.886 -34.0692L176.822 -41.7747ZM181.275 -42.968L185.073 -43.9856L189.391 -38.3193L189.523 -38.3546L190.43 -45.4209L194.227 -46.4385L197.239 -35.1987L194.254 -34.3987L192.512 -40.8967L192.425 -40.8732L191.64 -33.7924L189.839 -33.3101L185.607 -39.0936L185.52 -39.0701L187.273 -32.5281L184.287 -31.7281L181.275 -42.968ZM195.213 -46.7025L198.615 -47.6143L202.034 -43.6363L202.122 -43.6598L203.094 -48.8142L206.496 -49.726L204.434 -40.9147L205.381 -37.3803L202.351 -36.5685L201.404 -40.1029L195.213 -46.7025ZM-19.0142 42.4165L-19.4672 40.7261L-16.0545 32.2118L-21.3452 33.6295L-22.004 31.1707L-12.8277 28.712L-12.3748 30.4023L-15.7874 38.9166L-10.4968 37.499L-9.83794 39.9577L-19.0142 42.4165ZM-5.40758 38.7706L-8.70051 39.6529L-8.00219 27.419L-3.83115 26.3013L2.8906 36.5471L-0.402332 37.4294L-5.04337 29.9437L-5.13118 29.9673L-5.40758 38.7706ZM-7.21048 34.5008L-1.01977 32.842L-0.408018 35.1251L-6.59872 36.7839L-7.21048 34.5008ZM12.0561 26.5619L8.9607 27.3913C8.87012 27.1411 8.74933 26.9245 8.59832 26.7414C8.45096 26.5574 8.27487 26.4124 8.07003 26.3065C7.86786 26.196 7.64074 26.1313 7.38867 26.1126C7.13562 26.0902 6.86274 26.1182 6.57003 26.1967C6.0578 26.3339 5.65756 26.5745 5.36932 26.9184C5.08474 27.2613 4.91324 27.6896 4.8548 28.2033C4.80003 28.716 4.8599 29.298 5.0344 29.9492C5.21871 30.6371 5.46459 31.1889 5.77204 31.6045C6.08217 32.0155 6.44423 32.291 6.85822 32.4311C7.27123 32.5675 7.7247 32.5695 8.21864 32.4372C8.50037 32.3617 8.74351 32.2593 8.94807 32.1299C9.15165 31.997 9.31763 31.8407 9.446 31.6612C9.57437 31.4817 9.66429 31.2831 9.71576 31.0654C9.76991 30.8431 9.78292 30.6063 9.7548 30.355L12.856 29.5475C12.9469 30.033 12.9433 30.5536 12.8451 31.1093C12.746 31.6613 12.5401 32.2027 12.2274 32.7336C11.9174 33.2598 11.4853 33.7324 10.9309 34.1515C10.3766 34.5707 9.68777 34.8905 8.86453 35.1111C7.83275 35.3876 6.84776 35.4142 5.90956 35.1911C4.97502 34.967 4.15473 34.4888 3.4487 33.7564C2.74632 33.0231 2.22847 32.0344 1.89514 30.7904C1.55986 29.5391 1.51899 28.4207 1.77254 27.4351C2.02512 26.4459 2.50237 25.6219 3.2043 24.9632C3.90525 24.3009 4.76064 23.8345 5.77047 23.5639C6.48028 23.3737 7.15936 23.2957 7.8077 23.3298C8.45605 23.3639 9.05524 23.5073 9.60527 23.7599C10.1543 24.0088 10.6386 24.3673 11.0581 24.8353C11.4776 25.3032 11.8103 25.8788 12.0561 26.5619ZM15.3667 33.2041L14.9137 31.5138L18.3264 22.9995L13.0357 24.4171L12.3769 21.9584L21.5532 19.4996L22.0062 21.19L18.5935 29.7043L23.8842 28.2866L24.543 30.7454L15.3667 33.2041ZM22.5809 19.2243L25.9836 18.3125L29.4024 22.2905L29.4902 22.2669L30.462 17.1125L33.8647 16.2008L31.8022 25.0121L32.7492 28.5465L29.7197 29.3583L28.7727 25.8238L22.5809 19.2243ZM44.5845 13.3284L47.5962 24.5683L45.0497 25.2506L39.4061 20.4335L39.3402 20.4512L40.9226 26.3565L37.8711 27.1741L34.8594 15.9342L37.4498 15.2401L43.0217 20.0529L43.1095 20.0294L41.5331 14.146L44.5845 13.3284ZM51.9594 23.3992L48.6664 24.2815L49.3647 12.0475L53.5358 10.9299L60.2575 21.1757L56.9646 22.058L52.3236 14.5723L52.2358 14.5958L51.9594 23.3992ZM50.1565 19.1294L56.3472 17.4706L56.9589 19.7537L50.7682 21.4125L50.1565 19.1294ZM62.9604 8.40459L65.968 7.59872L68.0326 15.3042C68.2251 16.0369 68.2128 16.7304 67.996 17.3846C67.7818 18.0341 67.3962 18.6001 66.8392 19.0827C66.285 19.5606 65.5926 19.9109 64.762 20.1334C64.0412 20.3265 63.3493 20.3786 62.6862 20.2896C62.0222 20.197 61.4407 19.9293 60.9417 19.4865C60.4417 19.0401 60.0778 18.3847 59.8501 17.5202L62.9016 16.7026C62.988 16.9814 63.0993 17.2064 63.2354 17.3778C63.3752 17.5482 63.5351 17.6622 63.7153 17.7198C63.8981 17.7728 64.1011 17.7694 64.3243 17.7096C64.5511 17.6488 64.7282 17.5484 64.8554 17.4084C64.9862 17.2675 65.0659 17.0893 65.0945 16.8738C65.122 16.6547 65.0989 16.4001 65.0251 16.11L62.9604 8.40459ZM67.4141 7.21123L71.212 6.1936L75.5302 11.8599L75.6619 11.8246L76.5685 4.75833L80.3663 3.7407L83.378 14.9806L80.3924 15.7806L78.6513 9.28251L78.5635 9.30604L77.7785 16.3868L75.9783 16.8692L71.7463 11.0856L71.6585 11.1092L73.4114 17.6511L70.4258 18.4511L67.4141 7.21123ZM81.3514 3.47674L84.7541 2.56499L88.1729 6.54296L88.2607 6.51943L89.2325 1.36501L92.6352 0.453259L90.5727 9.26458L91.5198 12.799L88.4903 13.6107L87.5432 10.0763L81.3514 3.47674ZM99.7644 10.5898L99.3115 8.89946L102.724 0.385186L97.4335 1.80281L96.7747 -0.655913L105.951 -3.11469L106.404 -1.42432L102.991 7.08996L108.282 5.67233L108.941 8.13105L99.7644 10.5898ZM113.371 6.94394L110.078 7.82628L110.776 -4.40769L114.948 -5.52531L121.669 4.72045L118.376 5.60279L113.735 -1.88291L113.648 -1.85938L113.371 6.94394ZM111.568 2.67417L117.759 1.01537L118.371 3.29847L112.18 4.95726L111.568 2.67417ZM130.835 -5.26471L127.739 -4.43531C127.649 -4.68554 127.528 -4.90219 127.377 -5.08526C127.23 -5.2693 127.054 -5.41427 126.849 -5.52016C126.647 -5.63069 126.419 -5.69533 126.167 -5.71406C125.914 -5.73645 125.641 -5.70843 125.349 -5.63C124.836 -5.49274 124.436 -5.25217 124.148 -4.90827C123.863 -4.56536 123.692 -4.13706 123.633 -3.62337C123.579 -3.11066 123.639 -2.52867 123.813 -1.87741C123.997 -1.18955 124.243 -0.637796 124.551 -0.222146C124.861 0.188865 125.223 0.464394 125.637 0.604442C126.05 0.740831 126.503 0.74285 126.997 0.610499C127.279 0.53501 127.522 0.432606 127.727 0.303285C127.93 0.170306 128.096 0.0140705 128.225 -0.165422C128.353 -0.344915 128.443 -0.543516 128.494 -0.761225C128.549 -0.983572 128.562 -1.22039 128.533 -1.47167L131.635 -2.27912C131.726 -1.79367 131.722 -1.27309 131.624 -0.717391C131.525 -0.165346 131.319 0.37609 131.006 0.906917C130.696 1.43311 130.264 1.90576 129.71 2.32488C129.155 2.744 128.466 3.06386 127.643 3.28444C126.611 3.56091 125.626 3.58758 124.688 3.36447C123.754 3.14038 122.933 2.66215 122.227 1.92978C121.525 1.19642 121.007 0.207751 120.674 -1.03624C120.339 -2.28756 120.298 -3.406 120.551 -4.39157C120.804 -5.3808 121.281 -6.20475 121.983 -6.86341C122.684 -7.52573 123.539 -7.99218 124.549 -8.26276C125.259 -8.45296 125.938 -8.53099 126.586 -8.49688C127.235 -8.46276 127.834 -8.3194 128.384 -8.06679C128.933 -7.81783 129.417 -7.45937 129.837 -6.99139C130.256 -6.52342 130.589 -5.94785 130.835 -5.26471ZM134.145 1.37749L133.692 -0.312877L137.105 -8.82715L131.814 -7.40953L131.156 -9.86825L140.332 -12.327L140.785 -10.6367L137.372 -2.12239L142.663 -3.54001L143.322 -1.08129L134.145 1.37749ZM141.36 -12.6024L144.762 -13.5141L148.181 -9.53618L148.269 -9.5597L149.241 -14.7141L152.643 -15.6259L150.581 -6.81456L151.528 -3.28015L148.498 -2.4684L147.551 -6.00281L141.36 -12.6024ZM163.363 -18.4983L166.375 -7.25839L163.828 -6.57604L158.185 -11.3931L158.119 -11.3755L159.701 -5.47018L156.65 -4.65255L153.638 -15.8924L156.229 -16.5865L161.8 -11.7737L161.888 -11.7973L160.312 -17.6806L163.363 -18.4983ZM170.738 -8.42748L167.445 -7.54515L168.143 -19.7791L172.314 -20.8967L179.036 -10.651L175.743 -9.76864L171.102 -17.2543L171.014 -17.2308L170.738 -8.42748ZM168.935 -12.6973L175.126 -14.3561L175.738 -12.073L169.547 -10.4142L168.935 -12.6973ZM181.739 -23.4221L184.747 -24.2279L186.811 -16.5225C187.004 -15.7897 186.992 -15.0963 186.775 -14.4421C186.56 -13.7926 186.175 -13.2265 185.618 -12.7439C185.064 -12.266 184.371 -11.9158 183.541 -11.6932C182.82 -11.5001 182.128 -11.448 181.465 -11.537C180.801 -11.6297 180.219 -11.8974 179.72 -12.3401C179.22 -12.7866 178.857 -13.442 178.629 -14.3064L181.68 -15.1241C181.767 -14.8453 181.878 -14.6202 182.014 -14.4488C182.154 -14.2785 182.314 -14.1645 182.494 -14.1068C182.677 -14.0539 182.88 -14.0573 183.103 -14.1171C183.33 -14.1779 183.507 -14.2782 183.634 -14.4182C183.765 -14.5592 183.845 -14.7374 183.873 -14.9529C183.901 -15.172 183.878 -15.4266 183.804 -15.7166L181.739 -23.4221ZM186.193 -24.6154L189.991 -25.6331L194.309 -19.9667L194.441 -20.002L195.347 -27.0683L199.145 -28.086L202.157 -16.8461L199.171 -16.0461L197.43 -22.5441L197.342 -22.5206L196.557 -15.4398L194.757 -14.9575L190.525 -20.741L190.437 -20.7175L192.19 -14.1755L189.205 -13.3756L186.193 -24.6154ZM200.13 -28.3499L203.533 -29.2617L206.952 -25.2837L207.039 -25.3072L208.011 -30.4616L211.414 -31.3734L209.351 -22.5621L210.298 -19.0277L207.269 -18.2159L206.322 -21.7503L200.13 -28.3499ZM-14.0967 60.7691L-14.5496 59.0787L-11.137 50.5644L-16.4276 51.9821L-17.0864 49.5233L-7.91014 47.0646L-7.45721 48.7549L-10.8698 57.2692L-5.5792 55.8516L-4.92038 58.3103L-14.0967 60.7691ZM-0.490022 57.1232L-3.78295 58.0055L-3.08463 45.7716L1.08641 44.6539L7.80816 54.8997L4.51523 55.782L-0.125805 48.2963L-0.213617 48.3199L-0.490022 57.1232ZM-2.29292 52.8534L3.89779 51.1946L4.50954 53.4777L-1.68116 55.1365L-2.29292 52.8534ZM16.9736 44.9145L13.8783 45.7439C13.7877 45.4937 13.6669 45.2771 13.5159 45.094C13.3685 44.9099 13.1924 44.765 12.9876 44.6591C12.7854 44.5485 12.5583 44.4839 12.3062 44.4652C12.0532 44.4428 11.7803 44.4708 11.4876 44.5492C10.9754 44.6865 10.5751 44.9271 10.2869 45.271C10.0023 45.6139 9.8308 46.0422 9.77237 46.5559C9.71759 47.0686 9.77746 47.6506 9.95197 48.3018C10.1363 48.9897 10.3822 49.5414 10.6896 49.9571C10.9997 50.3681 11.3618 50.6436 11.7758 50.7837C12.1888 50.9201 12.6423 50.9221 13.1362 50.7897C13.4179 50.7143 13.6611 50.6119 13.8656 50.4825C14.0692 50.3496 14.2352 50.1933 14.3636 50.0138C14.4919 49.8343 14.5819 49.6357 14.6333 49.418C14.6875 49.1957 14.7005 48.9589 14.6724 48.7076L17.7736 47.9001C17.8645 48.3856 17.8608 48.9062 17.7627 49.4619C17.6635 50.0139 17.4576 50.5553 17.145 51.0862C16.835 51.6124 16.4028 52.085 15.8485 52.5041C15.2941 52.9232 14.6053 53.2431 13.7821 53.4637C12.7503 53.7402 11.7653 53.7668 10.8271 53.5437C9.89258 53.3196 9.07229 52.8414 8.36626 52.109C7.66389 51.3757 7.14603 50.387 6.81271 49.143C6.47742 47.8917 6.43655 46.7732 6.69011 45.7877C6.94268 44.7984 7.41993 43.9745 8.12186 43.3158C8.82281 42.6535 9.6782 42.1871 10.688 41.9165C11.3978 41.7263 12.0769 41.6483 12.7253 41.6824C13.3736 41.7165 13.9728 41.8598 14.5228 42.1125C15.0719 42.3614 15.5562 42.7199 15.9757 43.1879C16.3952 43.6558 16.7278 44.2314 16.9736 44.9145ZM20.2842 51.5567L19.8313 49.8664L23.2439 41.3521L17.9533 42.7697L17.2945 40.311L26.4708 37.8522L26.9237 39.5426L23.5111 48.0569L28.8017 46.6392L29.4605 49.098L20.2842 51.5567ZM27.4984 37.5768L30.9011 36.6651L34.3199 40.6431L34.4077 40.6195L35.3795 35.4651L38.7822 34.5534L36.7197 43.3647L37.6668 46.8991L34.6373 47.7108L33.6903 44.1764L27.4984 37.5768ZM49.5021 31.681L52.5138 42.9209L49.9673 43.6032L44.3236 38.7861L44.2578 38.8037L45.8401 44.7091L42.7887 45.5267L39.777 34.2868L42.3674 33.5927L47.9393 38.4055L48.0271 38.382L46.4506 32.4986L49.5021 31.681ZM56.8769 41.7518L53.584 42.6341L54.2823 30.4001L58.4534 29.2825L65.1751 39.5283L61.8822 40.4106L57.2411 32.9249L57.1533 32.9484L56.8769 41.7518ZM55.074 37.482L61.2647 35.8232L61.8765 38.1063L55.6858 39.7651L55.074 37.482ZM67.878 26.7572L70.8855 25.9513L72.9502 33.6568C73.1426 34.3895 73.1304 35.083 72.9135 35.7371C72.6993 36.3867 72.3138 36.9527 71.7568 37.4353C71.2025 37.9132 70.5101 38.2635 69.6796 38.486C68.9588 38.6791 68.2669 38.7312 67.6038 38.6422C66.9398 38.5496 66.3582 38.2818 65.8592 37.8391C65.3592 37.3927 64.9954 36.7373 64.7677 35.8728L67.8191 35.0552C67.9056 35.334 68.0169 35.559 68.153 35.7304C68.2928 35.9008 68.4527 36.0148 68.6328 36.0724C68.8157 36.1254 69.0187 36.122 69.2419 36.0622C69.4687 36.0014 69.6457 35.901 69.7729 35.761C69.9038 35.6201 69.9835 35.4419 70.012 35.2264C70.0396 35.0072 70.0164 34.7527 69.9427 34.4626L67.878 26.7572ZM72.3317 25.5638L76.1295 24.5462L80.4478 30.2125L80.5795 30.1772L81.486 23.1109L85.2839 22.0933L88.2956 33.3332L85.31 34.1331L83.5688 27.6351L83.481 27.6586L82.696 34.7394L80.8959 35.2218L76.6639 29.4382L76.5761 29.4617L78.329 36.0037L75.3434 36.8037L72.3317 25.5638ZM86.269 21.8293L89.6717 20.9176L93.0905 24.8955L93.1783 24.872L94.1501 19.7176L97.5528 18.8058L95.4903 27.6172L96.4373 31.1516L93.4078 31.9633L92.4608 28.4289L86.269 21.8293ZM104.682 28.9424L104.229 27.2521L107.642 18.7378L102.351 20.1554L101.692 17.6967L110.869 15.2379L111.321 16.9283L107.909 25.4425L113.199 24.0249L113.858 26.4836L104.682 28.9424ZM118.289 25.2965L114.996 26.1789L115.694 13.9449L119.865 12.8273L126.587 23.073L123.294 23.9554L118.653 16.4697L118.565 16.4932L118.289 25.2965ZM116.486 21.0268L122.676 19.368L123.288 21.6511L117.098 23.3099L116.486 21.0268ZM135.752 13.0879L132.657 13.9173C132.566 13.667 132.446 13.4504 132.295 13.2673C132.147 13.0833 131.971 12.9383 131.766 12.8324C131.564 12.7219 131.337 12.6573 131.085 12.6385C130.832 12.6161 130.559 12.6442 130.266 12.7226C129.754 12.8598 129.354 13.1004 129.066 13.4443C128.781 13.7872 128.609 14.2155 128.551 14.7292C128.496 15.2419 128.556 15.8239 128.731 16.4752C128.915 17.163 129.161 17.7148 129.468 18.1304C129.778 18.5415 130.14 18.817 130.554 18.957C130.967 19.0934 131.421 19.0954 131.915 18.9631C132.197 18.8876 132.44 18.7852 132.644 18.6559C132.848 18.5229 133.014 18.3667 133.142 18.1872C133.271 18.0077 133.361 17.8091 133.412 17.5914C133.466 17.369 133.479 17.1322 133.451 16.8809L136.552 16.0735C136.643 16.5589 136.64 17.0795 136.541 17.6352C136.442 18.1872 136.236 18.7287 135.924 19.2595C135.614 19.7857 135.182 20.2584 134.627 20.6775C134.073 21.0966 133.384 21.4164 132.561 21.637C131.529 21.9135 130.544 21.9402 129.606 21.7171C128.671 21.493 127.851 21.0147 127.145 20.2824C126.443 19.549 125.925 18.5603 125.591 17.3163C125.256 16.065 125.215 14.9466 125.469 13.961C125.721 12.9718 126.199 12.1478 126.901 11.4892C127.601 10.8269 128.457 10.3604 129.467 10.0898C130.177 9.89964 130.856 9.8216 131.504 9.85571C132.152 9.88983 132.751 10.0332 133.302 10.2858C133.851 10.5348 134.335 10.8932 134.754 11.3612C135.174 11.8292 135.507 12.4047 135.752 13.0879ZM139.063 19.7301L138.61 18.0397L142.023 9.52544L136.732 10.9431L136.073 8.48434L145.249 6.02556L145.702 7.71593L142.29 16.2302L147.58 14.8126L148.239 17.2713L139.063 19.7301ZM146.277 5.75019L149.68 4.83844L153.099 8.81641L153.186 8.79289L154.158 3.63847L157.561 2.72672L155.498 11.538L156.445 15.0724L153.416 15.8842L152.469 12.3498L146.277 5.75019ZM168.281 -0.14566L171.292 11.0942L168.746 11.7765L163.102 6.95944L163.036 6.97709L164.619 12.8824L161.567 13.7L158.556 2.46018L161.146 1.76607L166.718 6.57887L166.806 6.55534L165.229 0.671973L168.281 -0.14566ZM175.656 9.92511L172.363 10.8074L173.061 -1.42652L177.232 -2.54415L183.954 7.70162L180.661 8.58395L176.02 1.09826L175.932 1.12178L175.656 9.92511ZM173.853 5.65533L180.043 3.99654L180.655 6.27963L174.464 7.93843L173.853 5.65533ZM186.657 -5.06947L189.664 -5.87534L191.729 1.83011C191.921 2.56286 191.909 3.25632 191.692 3.91049C191.478 4.56003 191.092 5.12608 190.535 5.60865C189.981 6.08657 189.289 6.43681 188.458 6.65935C187.737 6.85248 187.046 6.90455 186.382 6.81555C185.718 6.7229 185.137 6.4552 184.638 6.01245C184.138 5.56604 183.774 4.91061 183.546 4.04615L186.598 3.22851C186.684 3.5073 186.796 3.73238 186.932 3.90375C187.071 4.07413 187.231 4.18813 187.412 4.24575C187.594 4.29872 187.797 4.2953 188.021 4.2355C188.247 4.17472 188.424 4.07435 188.552 3.93438C188.682 3.79344 188.762 3.61522 188.791 3.39974C188.818 3.18059 188.795 2.92601 188.721 2.63598L186.657 -5.06947ZM191.11 -6.26283L194.908 -7.28046L199.226 -1.61412L199.358 -1.64941L200.265 -8.71573L204.063 -9.73336L207.074 1.5065L204.089 2.30649L202.348 -4.19156L202.26 -4.16803L201.475 2.91278L199.675 3.39513L195.443 -2.38844L195.355 -2.36491L197.108 4.17704L194.122 4.97703L191.11 -6.26283ZM205.048 -9.99733L208.45 -10.9091L211.869 -6.93111L211.957 -6.95464L212.929 -12.1091L216.331 -13.0208L214.269 -4.20949L215.216 -0.675077L212.187 0.136674L211.239 -3.39774L205.048 -9.99733ZM-9.17912 79.1217L-9.63205 77.4313L-6.21943 68.917L-11.5101 70.3346L-12.1689 67.8759L-2.99258 65.4171L-2.53965 67.1075L-5.95227 75.6218L-0.661633 74.2042L-0.00282131 76.6629L-9.17912 79.1217ZM4.42754 75.4758L1.13461 76.3581L1.83293 64.1241L6.00398 63.0065L12.7257 73.2523L9.43279 74.1346L4.79176 66.6489L4.70395 66.6725L4.42754 75.4758ZM2.62465 71.206L8.81535 69.5472L9.42711 71.8303L3.2364 73.4891L2.62465 71.206ZM21.8912 63.2671L18.7958 64.0965C18.7052 63.8463 18.5844 63.6296 18.4334 63.4466C18.2861 63.2625 18.11 63.1176 17.9051 63.0117C17.703 62.9011 17.4759 62.8365 17.2238 62.8178C16.9707 62.7954 16.6979 62.8234 16.4052 62.9018C15.8929 63.0391 15.4927 63.2797 15.2044 63.6236C14.9199 63.9665 14.7484 64.3948 14.6899 64.9085C14.6352 65.4212 14.695 66.0032 14.8695 66.6544C15.0538 67.3423 15.2997 67.894 15.6072 68.3097C15.9173 68.7207 16.2793 68.9962 16.6933 69.1363C17.1063 69.2727 17.5598 69.2747 18.0538 69.1423C18.3355 69.0668 18.5786 68.9644 18.7832 68.8351C18.9868 68.7021 19.1528 68.5459 19.2811 68.3664C19.4095 68.1869 19.4994 67.9883 19.5509 67.7706C19.605 67.5483 19.618 67.3114 19.5899 67.0602L22.6912 66.2527C22.782 66.7382 22.7784 67.2587 22.6802 67.8144C22.5811 68.3665 22.3752 68.9079 22.0625 69.4388C21.7526 69.9649 21.3204 70.4376 20.766 70.8567C20.2117 71.2758 19.5229 71.5957 18.6997 71.8163C17.6679 72.0927 16.6829 72.1194 15.7447 71.8963C14.8101 71.6722 13.9899 71.194 13.2838 70.4616C12.5814 69.7283 12.0636 68.7396 11.7303 67.4956C11.395 66.2443 11.3541 65.1258 11.6077 64.1403C11.8602 63.151 12.3375 62.3271 13.0394 61.6684C13.7404 61.0061 14.5958 60.5397 15.6056 60.2691C16.3154 60.0789 16.9945 60.0008 17.6428 60.035C18.2912 60.0691 18.8904 60.2124 19.4404 60.465C19.9894 60.714 20.4737 61.0725 20.8932 61.5404C21.3127 62.0084 21.6454 62.584 21.8912 63.2671ZM25.2018 69.9093L24.7489 68.219L28.1615 59.7047L22.8709 61.1223L22.212 58.6636L31.3883 56.2048L31.8413 57.8952L28.4286 66.4095L33.7193 64.9918L34.3781 67.4505L25.2018 69.9093ZM32.416 55.9294L35.8187 55.0177L39.2375 58.9957L39.3253 58.9721L40.2971 53.8177L43.6998 52.906L41.6373 61.7173L42.5844 65.2517L39.5549 66.0634L38.6078 62.529L32.416 55.9294ZM54.4196 50.0336L57.4313 61.2734L54.8848 61.9558L49.2412 57.1387L49.1754 57.1563L50.7577 63.0617L47.7062 63.8793L44.6945 52.6394L47.285 51.9453L52.8568 56.7581L52.9446 56.7346L51.3682 50.8512L54.4196 50.0336ZM61.7945 60.1044L58.5015 60.9867L59.1999 48.7527L63.3709 47.6351L70.0927 57.8809L66.7997 58.7632L62.1587 51.2775L62.0709 51.301L61.7945 60.1044ZM59.9916 55.8346L66.1823 54.1758L66.794 56.4589L60.6033 58.1177L59.9916 55.8346ZM72.7955 45.1098L75.8031 44.3039L77.8678 52.0094C78.0602 52.7421 78.048 53.4356 77.8311 54.0897C77.6169 54.7393 77.2313 55.3053 76.6744 55.7879C76.1201 56.2658 75.4277 56.6161 74.5971 56.8386C73.8763 57.0317 73.1844 57.0838 72.5214 56.9948C71.8573 56.9021 71.2758 56.6344 70.7768 56.1917C70.2768 55.7453 69.9129 55.0899 69.6852 54.2254L72.7367 53.4078C72.8231 53.6865 72.9344 53.9116 73.0705 54.083C73.2103 54.2534 73.3703 54.3674 73.5504 54.425C73.7332 54.478 73.9362 54.4745 74.1594 54.4147C74.3863 54.354 74.5633 54.2536 74.6905 54.1136C74.8213 53.9727 74.901 53.7945 74.9296 53.579C74.9571 53.3598 74.934 53.1053 74.8602 52.8152L72.7955 45.1098ZM77.2492 43.9164L81.0471 42.8988L85.3653 48.5651L85.497 48.5298L86.4036 41.4635L90.2014 40.4459L93.2131 51.6857L90.2275 52.4857L88.4864 45.9877L88.3986 46.0112L87.6136 53.092L85.8134 53.5744L81.5814 47.7908L81.4936 47.8143L83.2465 54.3563L80.2609 55.1563L77.2492 43.9164ZM91.1866 40.1819L94.5893 39.2702L98.008 43.2481L98.0959 43.2246L99.0676 38.0702L102.47 37.1584L100.408 45.9698L101.355 49.5042L98.3254 50.3159L97.3784 46.7815L91.1866 40.1819ZM109.6 47.295L109.147 45.6046L112.559 37.0904L107.269 38.508L106.61 36.0493L115.786 33.5905L116.239 35.2809L112.826 43.7951L118.117 42.3775L118.776 44.8362L109.6 47.295ZM123.206 43.6491L119.913 44.5315L120.612 32.2975L124.783 31.1799L131.504 41.4256L128.211 42.308L123.57 34.8223L123.483 34.8458L123.206 43.6491ZM121.403 39.3793L127.594 37.7206L128.206 40.0037L122.015 41.6624L121.403 39.3793ZM140.67 31.4405L137.575 32.2699C137.484 32.0196 137.363 31.803 137.212 31.6199C137.065 31.4359 136.889 31.2909 136.684 31.185C136.482 31.0745 136.255 31.0099 136.002 30.9911C135.749 30.9687 135.477 30.9968 135.184 31.0752C134.672 31.2124 134.271 31.453 133.983 31.7969C133.699 32.1398 133.527 32.5681 133.469 33.0818C133.414 33.5945 133.474 34.1765 133.648 34.8278C133.833 35.5156 134.078 36.0674 134.386 36.483C134.696 36.894 135.058 37.1696 135.472 37.3096C135.885 37.446 136.339 37.448 136.832 37.3157C137.114 37.2402 137.357 37.1378 137.562 37.0085C137.765 36.8755 137.931 36.7193 138.06 36.5398C138.188 36.3603 138.278 36.1617 138.33 35.944C138.384 35.7216 138.397 35.4848 138.369 35.2335L141.47 34.4261C141.561 34.9115 141.557 35.4321 141.459 35.9878C141.36 36.5398 141.154 37.0813 140.841 37.6121C140.531 38.1383 140.099 38.6109 139.545 39.0301C138.99 39.4492 138.302 39.769 137.478 39.9896C136.447 40.2661 135.462 40.2928 134.523 40.0697C133.589 39.8456 132.769 39.3673 132.063 38.635C131.36 37.9016 130.842 36.9129 130.509 35.6689C130.174 34.4176 130.133 33.2992 130.386 32.3136C130.639 31.3244 131.116 30.5004 131.818 29.8418C132.519 29.1795 133.374 28.713 134.384 28.4424C135.094 28.2522 135.773 28.1742 136.422 28.2083C137.07 28.2424 137.669 28.3858 138.219 28.6384C138.768 28.8873 139.252 29.2458 139.672 29.7138C140.091 30.1818 140.424 30.7573 140.67 31.4405ZM143.98 38.0827L143.528 36.3923L146.94 27.878L141.65 29.2956L140.991 26.8369L150.167 24.3781L150.62 26.0685L147.207 34.5828L152.498 33.1652L153.157 35.6239L143.98 38.0827ZM151.195 24.1028L154.597 23.191L158.016 27.169L158.104 27.1455L159.076 21.9911L162.478 21.0793L160.416 29.8906L161.363 33.425L158.334 34.2368L157.387 30.7024L151.195 24.1028ZM173.198 18.2069L176.21 29.4468L173.664 30.1291L168.02 25.312L167.954 25.3297L169.536 31.235L166.485 32.0526L163.473 20.8128L166.064 20.1187L171.636 24.9315L171.723 24.9079L170.147 19.0246L173.198 18.2069ZM180.573 28.2777L177.28 29.16L177.979 16.9261L182.15 15.8084L188.871 26.0542L185.578 26.9365L180.937 19.4508L180.85 19.4744L180.573 28.2777ZM178.77 24.0079L184.961 22.3491L185.573 24.6322L179.382 26.291L178.77 24.0079ZM191.574 13.2831L194.582 12.4773L196.646 20.1827C196.839 20.9154 196.827 21.6089 196.61 22.2631C196.396 22.9126 196.01 23.4787 195.453 23.9612C194.899 24.4392 194.206 24.7894 193.376 25.0119C192.655 25.2051 191.963 25.2571 191.3 25.1681C190.636 25.0755 190.055 24.8078 189.555 24.365C189.055 23.9186 188.692 23.2632 188.464 22.3987L191.515 21.5811C191.602 21.8599 191.713 22.085 191.849 22.2563C191.989 22.4267 192.149 22.5407 192.329 22.5983C192.512 22.6513 192.715 22.6479 192.938 22.5881C193.165 22.5273 193.342 22.4269 193.469 22.287C193.6 22.146 193.68 21.9678 193.708 21.7523C193.736 21.5332 193.713 21.2786 193.639 20.9886L191.574 13.2831ZM196.028 12.0898L199.826 11.0721L204.144 16.7385L204.276 16.7032L205.182 9.63686L208.98 8.61923L211.992 19.8591L209.006 20.6591L207.265 14.161L207.177 14.1846L206.392 21.2654L204.592 21.7477L200.36 15.9642L200.272 15.9877L202.025 22.5296L199.04 23.3296L196.028 12.0898ZM209.965 8.35526L213.368 7.44351L216.787 11.4215L216.875 11.398L217.846 6.24353L221.249 5.33179L219.187 14.1431L220.134 17.6775L217.104 18.4893L216.157 14.9549L209.965 8.35526ZM-4.26156 97.4743L-4.71449 95.7839L-1.30186 87.2696L-6.5925 88.6872L-7.25131 86.2285L1.92498 83.7697L2.37791 85.4601L-1.03471 93.9744L4.25593 92.5568L4.91474 95.0155L-4.26156 97.4743ZM9.3451 93.8284L6.05217 94.7107L6.75049 82.4767L10.9215 81.3591L17.6433 91.6049L14.3504 92.4872L9.70932 85.0015L9.62151 85.025L9.3451 93.8284ZM7.54221 89.5586L13.7329 87.8998L14.3447 90.1829L8.15396 91.8417L7.54221 89.5586ZM26.8087 81.6197L23.7134 82.4491C23.6228 82.1989 23.502 81.9822 23.351 81.7992C23.2036 81.6151 23.0276 81.4702 22.8227 81.3643C22.6205 81.2537 22.3934 81.1891 22.1414 81.1704C21.8883 81.148 21.6154 81.176 21.3227 81.2544C20.8105 81.3917 20.4102 81.6323 20.122 81.9762C19.8374 82.3191 19.6659 82.7474 19.6075 83.2611C19.5527 83.7738 19.6126 84.3558 19.7871 85.007C19.9714 85.6949 20.2173 86.2466 20.5247 86.6623C20.8349 87.0733 21.1969 87.3488 21.6109 87.4889C22.0239 87.6253 22.4774 87.6273 22.9713 87.4949C23.2531 87.4194 23.4962 87.317 23.7008 87.1877C23.9043 87.0547 24.0703 86.8985 24.1987 86.719C24.3271 86.5395 24.417 86.3409 24.4684 86.1232C24.5226 85.9009 24.5356 85.664 24.5075 85.4128L27.6087 84.6053C27.6996 85.0908 27.6959 85.6113 27.5978 86.167C27.4986 86.7191 27.2928 87.2605 26.9801 87.7913C26.6701 88.3175 26.2379 88.7902 25.6836 89.2093C25.1292 89.6284 24.4405 89.9483 23.6172 90.1689C22.5854 90.4453 21.6004 90.472 20.6622 90.2489C19.7277 90.0248 18.9074 89.5466 18.2014 88.8142C17.499 88.0809 16.9812 87.0922 16.6478 85.8482C16.3125 84.5969 16.2717 83.4784 16.5252 82.4929C16.7778 81.5036 17.2551 80.6797 17.957 80.021C18.6579 79.3587 19.5133 78.8922 20.5232 78.6217C21.233 78.4315 21.912 78.3534 22.5604 78.3875C23.2087 78.4217 23.8079 78.565 24.358 78.8176C24.907 79.0666 25.3913 79.4251 25.8108 79.893C26.2303 80.361 26.5629 80.9366 26.8087 81.6197ZM30.1194 88.2619L29.6664 86.5715L33.0791 78.0573L27.7884 79.4749L27.1296 77.0162L36.3059 74.5574L36.7588 76.2478L33.3462 84.762L38.6369 83.3444L39.2957 85.8031L30.1194 88.2619ZM37.3336 74.282L40.7363 73.3703L44.1551 77.3482L44.2429 77.3247L45.2146 72.1703L48.6173 71.2586L46.5549 80.0699L47.5019 83.6043L44.4724 84.416L43.5254 80.8816L37.3336 74.282ZM59.3372 68.3862L62.3489 79.626L59.8024 80.3084L54.1588 75.4913L54.0929 75.5089L55.6752 81.4142L52.6238 82.2319L49.6121 70.992L52.2025 70.2979L57.7744 75.1107L57.8622 75.0872L56.2857 69.2038L59.3372 68.3862ZM66.712 78.4569L63.4191 79.3393L64.1174 67.1053L68.2885 65.9877L75.0102 76.2335L71.7173 77.1158L67.0763 69.6301L66.9884 69.6536L66.712 78.4569ZM64.9091 74.1872L71.0999 72.5284L71.7116 74.8115L65.5209 76.4703L64.9091 74.1872ZM77.7131 63.4624L80.7207 62.6565L82.7853 70.3619C82.9777 71.0947 82.9655 71.7882 82.7487 72.4423C82.5345 73.0919 82.1489 73.6579 81.5919 74.1405C81.0377 74.6184 80.3452 74.9686 79.5147 75.1912C78.7939 75.3843 78.102 75.4364 77.4389 75.3474C76.7749 75.2547 76.1934 74.987 75.6944 74.5443C75.1944 74.0979 74.8305 73.4424 74.6028 72.578L77.6542 71.7603C77.7407 72.0391 77.852 72.2642 77.9881 72.4356C78.1279 72.606 78.2878 72.72 78.468 72.7776C78.6508 72.8306 78.8538 72.8271 79.077 72.7673C79.3038 72.7066 79.4808 72.6062 79.608 72.4662C79.7389 72.3253 79.8186 72.1471 79.8471 71.9316C79.8747 71.7124 79.8516 71.4578 79.7778 71.1678L77.7131 63.4624ZM82.1668 62.269L85.9646 61.2514L90.2829 66.9177L90.4146 66.8824L91.3211 59.8161L95.119 58.7985L98.1307 70.0383L95.1451 70.8383L93.404 64.3403L93.3162 64.3638L92.5311 71.4446L90.731 71.927L86.499 66.1434L86.4112 66.1669L88.1641 72.7089L85.1785 73.5089L82.1668 62.269ZM96.1041 58.5345L99.5068 57.6228L102.926 61.6007L103.013 61.5772L103.985 56.4228L107.388 55.511L105.325 64.3223L106.272 67.8568L103.243 68.6685L102.296 65.1341L96.1041 58.5345ZM114.517 65.6476L114.064 63.9572L117.477 55.443L112.186 56.8606L111.527 54.4019L120.704 51.9431L121.157 53.6334L117.744 62.1477L123.035 60.7301L123.693 63.1888L114.517 65.6476ZM128.124 62.0017L124.831 62.8841L125.529 50.6501L129.7 49.5325L136.422 59.7782L133.129 60.6606L128.488 53.1749L128.4 53.1984L128.124 62.0017ZM126.321 57.7319L132.512 56.0731L133.123 58.3562L126.933 60.015L126.321 57.7319ZM145.587 49.7931L142.492 50.6225C142.401 50.3722 142.281 50.1556 142.13 49.9725C141.982 49.7885 141.806 49.6435 141.601 49.5376C141.399 49.4271 141.172 49.3624 140.92 49.3437C140.667 49.3213 140.394 49.3493 140.101 49.4278C139.589 49.565 139.189 49.8056 138.901 50.1495C138.616 50.4924 138.445 50.9207 138.386 51.4344C138.331 51.9471 138.391 52.5291 138.566 53.1804C138.75 53.8682 138.996 54.42 139.303 54.8356C139.614 55.2466 139.976 55.5222 140.39 55.6622C140.803 55.7986 141.256 55.8006 141.75 55.6683C142.032 55.5928 142.275 55.4904 142.479 55.3611C142.683 55.2281 142.849 55.0718 142.977 54.8923C143.106 54.7129 143.196 54.5143 143.247 54.2965C143.301 54.0742 143.314 53.8374 143.286 53.5861L146.387 52.7787C146.478 53.2641 146.475 53.7847 146.376 54.3404C146.277 54.8924 146.071 55.4339 145.759 55.9647C145.449 56.4909 145.017 56.9635 144.462 57.3827C143.908 57.8018 143.219 58.1216 142.396 58.3422C141.364 58.6187 140.379 58.6454 139.441 58.4222C138.506 58.1982 137.686 57.7199 136.98 56.9875C136.278 56.2542 135.76 55.2655 135.427 54.0215C135.091 52.7702 135.05 51.6518 135.304 50.6662C135.556 49.677 136.034 48.853 136.736 48.1944C137.437 47.532 138.292 47.0656 139.302 46.795C140.012 46.6048 140.691 46.5268 141.339 46.5609C141.987 46.595 142.587 46.7384 143.137 46.991C143.686 47.2399 144.17 47.5984 144.589 48.0664C145.009 48.5344 145.342 49.1099 145.587 49.7931ZM148.898 56.4353L148.445 54.7449L151.858 46.2306L146.567 47.6482L145.908 45.1895L155.085 42.7307L155.538 44.4211L152.125 52.9354L157.416 51.5178L158.074 53.9765L148.898 56.4353ZM156.112 42.4554L159.515 41.5436L162.934 45.5216L163.022 45.4981L163.993 40.3436L167.396 39.4319L165.334 48.2432L166.281 51.7776L163.251 52.5894L162.304 49.055L156.112 42.4554ZM178.116 36.5595L181.128 47.7994L178.581 48.4817L172.937 43.6646L172.872 43.6823L174.454 49.5876L171.402 50.4052L168.391 39.1654L170.981 38.4713L176.553 43.284L176.641 43.2605L175.064 37.3772L178.116 36.5595ZM185.491 46.6303L182.198 47.5126L182.896 35.2787L187.067 34.161L193.789 44.4068L190.496 45.2891L185.855 37.8034L185.767 37.827L185.491 46.6303ZM183.688 42.3605L189.879 40.7017L190.49 42.9848L184.3 44.6436L183.688 42.3605ZM196.492 31.6357L199.499 30.8298L201.564 38.5353C201.756 39.268 201.744 39.9615 201.527 40.6157C201.313 41.2652 200.928 41.8313 200.371 42.3138C199.816 42.7918 199.124 43.142 198.293 43.3645C197.573 43.5577 196.881 43.6097 196.218 43.5207C195.554 43.4281 194.972 43.1604 194.473 42.7176C193.973 42.2712 193.609 41.6158 193.381 40.7513L196.433 39.9337C196.519 40.2125 196.631 40.4376 196.767 40.6089C196.907 40.7793 197.067 40.8933 197.247 40.9509C197.429 41.0039 197.632 41.0005 197.856 40.9407C198.083 40.8799 198.26 40.7795 198.387 40.6396C198.518 40.4986 198.597 40.3204 198.626 40.1049C198.653 39.8858 198.63 39.6312 198.556 39.3412L196.492 31.6357ZM200.945 30.4423L204.743 29.4247L209.062 35.0911L209.193 35.0558L210.1 27.9894L213.898 26.9718L216.909 38.2117L213.924 39.0117L212.183 32.5136L212.095 32.5372L211.31 39.618L209.51 40.1003L205.278 34.3167L205.19 34.3403L206.943 40.8822L203.957 41.6822L200.945 30.4423ZM214.883 26.7079L218.286 25.7961L221.704 29.7741L221.792 29.7505L222.764 24.5961L226.167 23.6844L224.104 32.4957L225.051 36.0301L222.022 36.8419L221.075 33.3074L214.883 26.7079ZM0.656007 115.827L0.203073 114.136L3.6157 105.622L-1.67494 107.04L-2.33375 104.581L6.84254 102.122L7.29548 103.813L3.88285 112.327L9.17349 110.909L9.8323 113.368L0.656007 115.827ZM14.2627 112.181L10.9697 113.063L11.6681 100.829L15.8391 99.7117L22.5608 109.957L19.2679 110.84L14.6269 103.354L14.5391 103.378L14.2627 112.181ZM12.4598 107.911L18.6505 106.252L19.2622 108.535L13.0715 110.194L12.4598 107.911ZM31.7263 99.9723L28.6309 100.802C28.5404 100.551 28.4196 100.335 28.2686 100.152C28.1212 99.9677 27.9451 99.8227 27.7403 99.7169C27.5381 99.6063 27.311 99.5417 27.0589 99.523C26.8059 99.5006 26.533 99.5286 26.2403 99.607C25.728 99.7443 25.3278 99.9848 25.0396 100.329C24.755 100.672 24.5835 101.1 24.5251 101.614C24.4703 102.126 24.5301 102.708 24.7047 103.36C24.889 104.047 25.1348 104.599 25.4423 105.015C25.7524 105.426 26.1145 105.701 26.5285 105.841C26.9415 105.978 27.3949 105.98 27.8889 105.848C28.1706 105.772 28.4138 105.67 28.6183 105.54C28.8219 105.407 28.9879 105.251 29.1162 105.072C29.2446 104.892 29.3345 104.694 29.386 104.476C29.4402 104.253 29.4532 104.017 29.4251 103.765L32.5263 102.958C32.6171 103.443 32.6135 103.964 32.5153 104.52C32.4162 105.072 32.2103 105.613 31.8977 106.144C31.5877 106.67 31.1555 107.143 30.6012 107.562C30.0468 107.981 29.358 108.301 28.5348 108.521C27.503 108.798 26.518 108.825 25.5798 108.601C24.6453 108.377 23.825 107.899 23.1189 107.167C22.4166 106.433 21.8987 105.445 21.5654 104.201C21.2301 102.949 21.1892 101.831 21.4428 100.845C21.6954 99.8562 22.1726 99.0323 22.8745 98.3736C23.5755 97.7113 24.4309 97.2448 25.4407 96.9743C26.1505 96.7841 26.8296 96.706 27.4779 96.7401C28.1263 96.7743 28.7255 96.9176 29.2755 97.1702C29.8246 97.4192 30.3088 97.7776 30.7284 98.2456C31.1479 98.7136 31.4805 99.2892 31.7263 99.9723ZM35.0369 106.615L34.584 104.924L37.9966 96.4099L32.706 97.8275L32.0472 95.3688L41.2235 92.91L41.6764 94.6004L38.2638 103.115L43.5544 101.697L44.2132 104.156L35.0369 106.615ZM42.2511 92.6346L45.6538 91.7229L49.0726 95.7008L49.1604 95.6773L50.1322 90.5229L53.5349 89.6111L51.4724 98.4225L52.4195 101.957L49.39 102.769L48.4429 99.2342L42.2511 92.6346ZM64.2548 86.7388L67.2665 97.9786L64.7199 98.661L59.0763 93.8439L59.0105 93.8615L60.5928 99.7668L57.5414 100.584L54.5296 89.3446L57.1201 88.6505L62.6919 93.4633L62.7798 93.4398L61.2033 87.5564L64.2548 86.7388ZM71.6296 96.8095L68.3367 97.6919L69.035 85.4579L73.206 84.3403L79.9278 94.586L76.6349 95.4684L71.9938 87.9827L71.906 88.0062L71.6296 96.8095ZM69.8267 92.5398L76.0174 90.881L76.6292 93.1641L70.4385 94.8229L69.8267 92.5398ZM82.6307 81.815L85.6382 81.0091L87.7029 88.7145C87.8953 89.4473 87.8831 90.1407 87.6662 90.7949C87.452 91.4445 87.0665 92.0105 86.5095 92.4931C85.9552 92.971 85.2628 93.3212 84.4322 93.5438C83.7115 93.7369 83.0195 93.789 82.3565 93.7C81.6925 93.6073 81.1109 93.3396 80.6119 92.8969C80.1119 92.4505 79.7481 91.795 79.5204 90.9306L82.5718 90.1129C82.6583 90.3917 82.7696 90.6168 82.9057 90.7882C83.0454 90.9586 83.2054 91.0726 83.3855 91.1302C83.5684 91.1831 83.7714 91.1797 83.9945 91.1199C84.2214 91.0591 84.3984 90.9588 84.5256 90.8188C84.6565 90.6779 84.7362 90.4996 84.7647 90.2842C84.7923 90.065 84.7691 89.8104 84.6953 89.5204L82.6307 81.815ZM87.0844 80.6216L90.8822 79.604L95.2004 85.2703L95.3322 85.235L96.2387 78.1687L100.037 77.1511L103.048 88.3909L100.063 89.1909L98.3215 82.6929L98.2337 82.7164L97.4487 89.7972L95.6486 90.2796L91.4166 84.496L91.3288 84.5195L93.0817 91.0615L90.0961 91.8615L87.0844 80.6216ZM101.022 76.8871L104.424 75.9753L107.843 79.9533L107.931 79.9298L108.903 74.7754L112.305 73.8636L110.243 82.6749L111.19 86.2093L108.161 87.0211L107.213 83.4867L101.022 76.8871ZM119.435 84.0002L118.982 82.3098L122.394 73.7955L117.104 75.2132L116.445 72.7544L125.621 70.2957L126.074 71.986L122.662 80.5003L127.952 79.0827L128.611 81.5414L119.435 84.0002ZM133.041 80.3543L129.748 81.2366L130.447 69.0027L134.618 67.885L141.34 78.1308L138.047 79.0131L133.406 71.5275L133.318 71.551L133.041 80.3543ZM131.238 76.0845L137.429 74.4257L138.041 76.7088L131.85 78.3676L131.238 76.0845ZM150.505 68.1457L147.41 68.9751C147.319 68.7248 147.198 68.5082 147.047 68.3251C146.9 68.1411 146.724 67.9961 146.519 67.8902C146.317 67.7797 146.09 67.715 145.838 67.6963C145.585 67.6739 145.312 67.7019 145.019 67.7804C144.507 67.9176 144.107 68.1582 143.818 68.5021C143.534 68.845 143.362 69.2733 143.304 69.787C143.249 70.2997 143.309 70.8817 143.483 71.533C143.668 72.2208 143.914 72.7726 144.221 73.1882C144.531 73.5992 144.893 73.8748 145.307 74.0148C145.72 74.1512 146.174 74.1532 146.668 74.0209C146.949 73.9454 147.192 73.843 147.397 73.7136C147.601 73.5807 147.767 73.4244 147.895 73.2449C148.023 73.0654 148.113 72.8668 148.165 72.6491C148.219 72.4268 148.232 72.19 148.204 71.9387L151.305 71.1312C151.396 71.6167 151.392 72.1373 151.294 72.693C151.195 73.245 150.989 73.7865 150.676 74.3173C150.366 74.8435 149.934 75.3161 149.38 75.7352C148.825 76.1544 148.137 76.4742 147.313 76.6948C146.282 76.9713 145.297 76.9979 144.358 76.7748C143.424 76.5507 142.604 76.0725 141.898 75.3401C141.195 74.6068 140.677 73.6181 140.344 72.3741C140.009 71.1228 139.968 70.0044 140.221 69.0188C140.474 68.0296 140.951 67.2056 141.653 66.547C142.354 65.8846 143.21 65.4182 144.219 65.1476C144.929 64.9574 145.608 64.8794 146.257 64.9135C146.905 64.9476 147.504 65.091 148.054 65.3436C148.603 65.5925 149.088 65.951 149.507 66.419C149.927 66.8869 150.259 67.4625 150.505 68.1457ZM153.816 74.7879L153.363 73.0975L156.775 64.5832L151.485 66.0008L150.826 63.5421L160.002 61.0833L160.455 62.7737L157.042 71.288L162.333 69.8704L162.992 72.3291L153.816 74.7879ZM161.03 60.808L164.433 59.8962L167.851 63.8742L167.939 63.8507L168.911 58.6962L172.314 57.7845L170.251 66.5958L171.198 70.1302L168.169 70.942L167.222 67.4076L161.03 60.808ZM183.033 54.9121L186.045 66.152L183.499 66.8343L177.855 62.0172L177.789 62.0349L179.371 67.9402L176.32 68.7578L173.308 57.5179L175.899 56.8238L181.471 61.6366L181.558 61.6131L179.982 55.7297L183.033 54.9121ZM190.408 64.9829L187.115 65.8652L187.814 53.6313L191.985 52.5136L198.706 62.7594L195.414 63.6417L190.773 56.156L190.685 56.1796L190.408 64.9829ZM188.605 60.7131L194.796 59.0543L195.408 61.3374L189.217 62.9962L188.605 60.7131ZM201.409 49.9883L204.417 49.1824L206.482 56.8879C206.674 57.6206 206.662 58.3141 206.445 58.9683C206.231 59.6178 205.845 60.1839 205.288 60.6664C204.734 61.1443 204.041 61.4946 203.211 61.7171C202.49 61.9103 201.798 61.9623 201.135 61.8733C200.471 61.7807 199.89 61.513 199.391 61.0702C198.891 60.6238 198.527 59.9684 198.299 59.1039L201.35 58.2863C201.437 58.5651 201.548 58.7901 201.684 58.9615C201.824 59.1319 201.984 59.2459 202.164 59.3035C202.347 59.3565 202.55 59.3531 202.773 59.2933C203 59.2325 203.177 59.1321 203.304 58.9922C203.435 58.8512 203.515 58.673 203.543 58.4575C203.571 58.2384 203.548 57.9838 203.474 57.6938L201.409 49.9883ZM205.863 48.7949L209.661 47.7773L213.979 53.4437L214.111 53.4084L215.017 46.342L218.815 45.3244L221.827 56.5643L218.841 57.3643L217.1 50.8662L217.012 50.8897L216.227 57.9706L214.427 58.4529L210.195 52.6693L210.107 52.6929L211.86 59.2348L208.875 60.0348L205.863 48.7949ZM219.8 45.0604L223.203 44.1487L226.622 48.1267L226.71 48.1031L227.681 42.9487L231.084 42.037L229.022 50.8483L229.969 54.3827L226.939 55.1944L225.992 51.66L219.8 45.0604Z" fill="white" fill-opacity="0.1"/>
</g>
<defs>
<filter id="filter0_f_6_3" x="-32.9023" y="-69.2322" width="268.039" height="186.213" filterUnits="userSpaceOnUse" color-interpolation-filters="sRGB">
<feFlood flood-opacity="0" result="BackgroundImageFix"/>
<feBlend mode="normal" in="SourceGraphic" in2="BackgroundImageFix" result="shape"/>
<feGaussianBlur stdDeviation="0.5" result="effect1_foregroundBlur_6_3"/>
</filter>
</defs>
</svg>
