<svg width="39" height="39" viewBox="0 0 39 39" fill="none" xmlns="http://www.w3.org/2000/svg">
<path fill-rule="evenodd" clip-rule="evenodd" d="M14.6733 38.6139V33.9803L5.0198 24.3267H0V32.6139C0 35.9276 2.68629 38.6139 5.99999 38.6139L14.6733 38.6139ZM23.9407 38.6139L32.6139 38.6139C35.9276 38.6139 38.6139 35.9276 38.6139 32.6139V24.3267H33.5941L23.9407 33.9801V38.6139ZM38.6139 14.6733V6C38.6139 2.68629 35.9276 0 32.6139 0H23.9407V4.63373L33.9802 14.6733H38.6139ZM14.6733 0H6C2.68629 0 0 2.68629 0 5.99999V14.6733H4.63367L14.6733 4.6336V0Z" fill="#2BE554"/>
<circle cx="19.3069" cy="19.3069" r="9.26733" fill="#2BE554"/>
</svg>
